<svg width="19" height="10" viewBox="0 0 19 10" fill="none" xmlns="http://www.w3.org/2000/svg">
<path d="M18.775 1.5251L10.575 9.7501C10.475 9.83343 10.379 9.89176 10.287 9.9251C10.1957 9.95843 10.1 9.9751 10 9.9751C9.9 9.9751 9.804 9.95843 9.712 9.9251C9.62066 9.89176 9.525 9.83343 9.425 9.7501L1.2 1.5001C1.05 1.36676 0.974998 1.2001 0.974998 1.0001C0.974998 0.800097 1.05833 0.625097 1.225 0.475098C1.375 0.325098 1.554 0.250097 1.762 0.250097C1.97066 0.250097 2.14166 0.325098 2.275 0.475098L10 8.1751L17.725 0.450097C17.875 0.300098 18.0457 0.225097 18.237 0.225097C18.429 0.225097 18.6083 0.30843 18.775 0.475097C18.925 0.625096 19 0.800097 19 1.0001C19 1.2001 18.925 1.3751 18.775 1.5251Z" fill="white"/>
</svg>
