<svg width="765" height="732" viewBox="0 0 765 732" fill="none" xmlns="http://www.w3.org/2000/svg">
<path d="M495.153 492.114L661.785 700.15C663.093 701.854 664.051 703.802 664.605 705.881C665.159 707.961 665.297 710.13 665.011 712.263C664.725 714.396 664.021 716.451 662.94 718.309C661.859 720.167 660.422 721.79 658.712 723.085L485.37 848.167C481.863 850.569 477.559 851.489 473.385 850.728C469.21 849.967 465.501 847.587 463.055 844.1L315.584 621.669L167.952 844.019C165.517 847.542 161.798 849.954 157.603 850.731C153.409 851.508 149.079 850.586 145.557 848.167L-27.786 723.085C-29.5017 721.796 -30.9461 720.177 -32.0348 718.323C-33.1235 716.468 -33.8352 714.414 -34.1286 712.281C-34.4219 710.147 -34.2911 707.976 -33.7437 705.894C-33.1962 703.811 -32.2428 701.859 -30.9393 700.15L136.259 492.114L-122.462 421.196C-124.504 420.582 -126.405 419.568 -128.056 418.212C-129.707 416.857 -131.075 415.186 -132.082 413.296C-133.089 411.407 -133.714 409.336 -133.923 407.202C-134.131 405.069 -133.918 402.915 -133.296 400.864L-66.9177 198.277C-66.2659 196.244 -65.2106 194.366 -63.8157 192.756C-62.4209 191.145 -60.7151 189.837 -58.8026 188.909C-56.89 187.981 -54.8102 187.454 -52.689 187.359C-50.5678 187.263 -48.4495 187.602 -46.4624 188.355L204.658 281.963L192.854 16.2655C192.853 12.0212 194.5 7.94444 197.446 4.90548C200.392 1.86653 204.402 0.106109 208.62 0H422.954C427.172 0.106109 431.181 1.86653 434.127 4.90548C437.072 7.94444 438.72 12.0212 438.719 16.2655L426.753 282.289L677.955 188.68C681.904 187.355 686.21 187.613 689.975 189.4C693.74 191.188 696.674 194.368 698.167 198.277L764.303 400.539C764.923 402.595 765.133 404.754 764.919 406.892C764.705 409.029 764.073 411.103 763.058 412.993C762.043 414.884 760.667 416.553 759.007 417.905C757.347 419.258 755.437 420.265 753.388 420.871L495.153 492.114Z" fill="#F7F7F7"/>
</svg>
