<svg width="450" height="588" viewBox="0 0 450 588" fill="none" xmlns="http://www.w3.org/2000/svg">
<mask id="path-1-inside-1_0_1" fill="white">
<path d="M360.168 233.189L420.349 334.256C420.817 335.08 421.118 335.99 421.234 336.934C421.351 337.877 421.28 338.835 421.027 339.751C420.774 340.668 420.343 341.525 419.759 342.273C419.175 343.022 418.45 343.646 417.626 344.11L334.448 388.448C332.774 389.289 330.84 389.433 329.064 388.849C327.289 388.266 325.813 387.001 324.956 385.328L274.003 279.111L196.185 367.568C194.91 368.964 193.142 369.796 191.265 369.885C189.388 369.973 187.554 369.309 186.162 368.039L118.055 302.878C117.384 302.211 116.851 301.416 116.488 300.539C116.125 299.662 115.938 298.72 115.938 297.768C115.939 296.817 116.127 295.874 116.491 294.996C116.855 294.117 117.389 293.32 118.061 292.65L203.555 211.634L94.928 165.053C94.074 164.662 93.3055 164.104 92.6667 163.411C92.0279 162.719 91.5314 161.905 91.2059 161.018C90.8804 160.13 90.7322 159.186 90.7698 158.24C90.8075 157.293 91.0301 156.363 91.4251 155.503L132.596 70.8162C133.002 69.9656 133.576 69.2068 134.282 68.5857C134.988 67.9646 135.811 67.4943 136.701 67.2031C137.592 66.9119 138.531 66.8059 139.462 66.8917C140.394 66.9774 141.298 67.253 142.12 67.7018L246.063 123.757L256.919 6.75057C257.174 4.89271 258.138 3.20727 259.607 2.05401C261.075 0.900751 262.931 0.371045 264.778 0.577943L358.308 13.451C360.143 13.7507 361.786 14.7621 362.889 16.2692C363.991 17.7763 364.464 19.6597 364.208 21.5174L342.96 137.239L458.218 111.353C460.021 111.01 461.884 111.382 463.42 112.39C464.955 113.399 466.044 114.967 466.46 116.768L483.135 209.271C483.282 210.208 483.243 211.166 483.021 212.089C482.799 213.012 482.398 213.881 481.841 214.648C481.285 215.414 480.583 216.062 479.778 216.555C478.972 217.047 478.078 217.373 477.147 217.515L360.168 233.189Z"/>
</mask>
<path d="M360.168 233.189L360.035 232.198L358.533 232.399L359.308 233.701L360.168 233.189ZM420.349 334.256L421.218 333.762L421.213 333.753L421.208 333.744L420.349 334.256ZM417.626 344.11L418.097 344.992L418.107 344.987L418.117 344.981L417.626 344.11ZM334.448 388.448L334.897 389.342L334.908 389.336L334.919 389.331L334.448 388.448ZM324.956 385.328L324.054 385.76L324.06 385.772L324.066 385.784L324.956 385.328ZM274.003 279.111L274.905 278.679L274.251 277.315L273.253 278.451L274.003 279.111ZM196.185 367.568L196.923 368.243L196.93 368.236L196.936 368.229L196.185 367.568ZM186.162 368.039L185.471 368.761L185.479 368.769L185.488 368.777L186.162 368.039ZM118.055 302.878L117.35 303.588L117.357 303.594L117.364 303.601L118.055 302.878ZM118.061 292.65L117.373 291.925L117.364 291.933L117.355 291.942L118.061 292.65ZM203.555 211.634L204.243 212.359L205.346 211.314L203.949 210.714L203.555 211.634ZM94.928 165.053L94.5114 165.963L94.5226 165.968L94.5339 165.973L94.928 165.053ZM91.4251 155.503L90.5258 155.066L90.521 155.076L90.5164 155.086L91.4251 155.503ZM132.596 70.8162L133.495 71.2534L133.498 71.2477L132.596 70.8162ZM142.12 67.7018L141.64 68.5795L141.645 68.582L142.12 67.7018ZM246.063 123.757L245.588 124.637L246.919 125.355L247.059 123.85L246.063 123.757ZM256.919 6.75057L255.928 6.61453L255.925 6.63631L255.923 6.65819L256.919 6.75057ZM264.778 0.577943L264.915 -0.412718L264.902 -0.414438L264.89 -0.415842L264.778 0.577943ZM358.308 13.451L358.47 12.4641L358.457 12.462L358.445 12.4603L358.308 13.451ZM364.208 21.5174L365.192 21.698L365.196 21.6761L365.199 21.654L364.208 21.5174ZM342.96 137.239L341.977 137.058L341.704 138.546L343.179 138.214L342.96 137.239ZM458.218 111.353L458.031 110.371L458.015 110.374L457.999 110.377L458.218 111.353ZM466.46 116.768L467.444 116.59L467.44 116.566L467.434 116.543L466.46 116.768ZM483.135 209.271L484.123 209.116L484.121 209.105L484.119 209.094L483.135 209.271ZM477.147 217.515L477.28 218.506L477.289 218.505L477.298 218.504L477.147 217.515ZM359.308 233.701L419.49 334.767L421.208 333.744L361.027 232.677L359.308 233.701ZM419.479 334.75C419.882 335.459 420.141 336.243 420.242 337.056L422.227 336.811C422.094 335.738 421.752 334.701 421.218 333.762L419.479 334.75ZM420.242 337.056C420.342 337.869 420.281 338.695 420.063 339.485L421.991 340.018C422.279 338.975 422.359 337.885 422.227 336.811L420.242 337.056ZM420.063 339.485C419.845 340.275 419.473 341.014 418.971 341.658L420.547 342.889C421.212 342.037 421.703 341.061 421.991 340.018L420.063 339.485ZM418.971 341.658C418.468 342.303 417.844 342.84 417.136 343.239L418.117 344.981C419.057 344.452 419.883 343.741 420.547 342.889L418.971 341.658ZM417.156 343.227L333.978 387.566L334.919 389.331L418.097 344.992L417.156 343.227ZM334 387.554C332.561 388.277 330.9 388.4 329.376 387.899L328.752 389.799C330.78 390.466 332.987 390.301 334.897 389.342L334 387.554ZM329.376 387.899C327.852 387.398 326.584 386.312 325.846 384.872L324.066 385.784C325.042 387.69 326.725 389.133 328.752 389.799L329.376 387.899ZM325.857 384.895L274.905 278.679L273.102 279.544L324.054 385.76L325.857 384.895ZM273.253 278.451L195.434 366.908L196.936 368.229L274.754 279.772L273.253 278.451ZM195.447 366.894C194.349 368.095 192.829 368.81 191.218 368.886L191.312 370.883C193.455 370.783 195.471 369.832 196.923 368.243L195.447 366.894ZM191.218 368.886C189.607 368.961 188.032 368.392 186.837 367.3L185.488 368.777C187.075 370.226 189.168 370.984 191.312 370.883L191.218 368.886ZM186.854 367.316L118.747 302.156L117.364 303.601L185.471 368.761L186.854 367.316ZM118.76 302.169C118.183 301.596 117.725 300.911 117.412 300.156L115.564 300.921C115.978 301.92 116.585 302.827 117.35 303.588L118.76 302.169ZM117.412 300.156C117.099 299.401 116.938 298.589 116.938 297.769L114.938 297.768C114.938 298.851 115.15 299.922 115.564 300.921L117.412 300.156ZM116.938 297.769C116.939 296.949 117.101 296.136 117.415 295.379L115.567 294.613C115.153 295.613 114.939 296.685 114.938 297.768L116.938 297.769ZM117.415 295.379C117.729 294.622 118.189 293.935 118.767 293.359L117.355 291.942C116.59 292.705 115.982 293.613 115.567 294.613L117.415 295.379ZM118.749 293.376L204.243 212.359L202.867 210.908L117.373 291.925L118.749 293.376ZM203.949 210.714L95.3221 164.134L94.5339 165.973L203.161 212.553L203.949 210.714ZM95.3447 164.144C94.6114 163.808 93.951 163.329 93.4018 162.733L91.9316 164.089C92.6599 164.879 93.5366 165.516 94.5114 165.963L95.3447 164.144ZM93.4018 162.733C92.8525 162.138 92.4251 161.438 92.1448 160.674L90.2671 161.362C90.6378 162.373 91.2034 163.3 91.9316 164.089L93.4018 162.733ZM92.1448 160.674C91.8644 159.909 91.7366 159.096 91.769 158.28L89.7706 158.2C89.7278 159.277 89.8964 160.352 90.2671 161.362L92.1448 160.674ZM91.769 158.28C91.8015 157.464 91.9935 156.662 92.3339 155.921L90.5164 155.086C90.0668 156.065 89.8134 157.123 89.7706 158.2L91.769 158.28ZM92.3245 155.941L133.495 71.2534L131.696 70.379L90.5258 155.066L92.3245 155.941ZM133.498 71.2477C133.847 70.5183 134.338 69.8681 134.942 69.3364L133.621 67.835C132.814 68.5454 132.158 69.4129 131.693 70.3847L133.498 71.2477ZM134.942 69.3364C135.547 68.8047 136.251 68.4025 137.012 68.1536L136.39 66.2526C135.371 66.5861 134.428 67.1246 133.621 67.835L134.942 69.3364ZM137.012 68.1536C137.773 67.9047 138.575 67.8143 139.371 67.8875L139.554 65.8959C138.487 65.7976 137.41 65.9191 136.39 66.2526L137.012 68.1536ZM139.371 67.8875C140.166 67.9607 140.938 68.196 141.64 68.5795L142.599 66.8242C141.657 66.31 140.622 65.9941 139.554 65.8959L139.371 67.8875ZM141.645 68.582L245.588 124.637L246.538 122.877L142.594 66.8217L141.645 68.582ZM247.059 123.85L257.914 6.84296L255.923 6.65819L245.067 123.665L247.059 123.85ZM257.909 6.88662C258.129 5.28448 258.961 3.83273 260.225 2.84047L258.989 1.26755C257.316 2.58181 256.218 4.50094 255.928 6.61453L257.909 6.88662ZM260.225 2.84047C261.488 1.84845 263.082 1.39419 264.667 1.57173L264.89 -0.415842C262.78 -0.6521 260.663 -0.0469498 258.989 1.26755L260.225 2.84047ZM264.642 1.5686L358.172 14.4416L358.445 12.4603L264.915 -0.412718L264.642 1.5686ZM358.147 14.4379C359.721 14.6951 361.133 15.5631 362.081 16.8595L363.696 15.6788C362.439 13.9611 360.564 12.8064 358.47 12.4641L358.147 14.4379ZM362.081 16.8595C363.03 18.1562 363.439 19.7787 363.218 21.3807L365.199 21.654C365.49 19.5406 364.952 17.3963 363.696 15.6788L362.081 16.8595ZM363.225 21.3368L341.977 137.058L343.944 137.419L365.192 21.698L363.225 21.3368ZM343.179 138.214L458.437 112.329L457.999 110.377L342.741 136.263L343.179 138.214ZM458.405 112.336C459.953 112.041 461.552 112.36 462.871 113.226L463.969 111.554C462.217 110.403 460.09 109.979 458.031 110.371L458.405 112.336ZM462.871 113.226C464.189 114.092 465.127 115.441 465.486 116.993L467.434 116.543C466.961 114.493 465.721 112.705 463.969 111.554L462.871 113.226ZM465.476 116.945L482.151 209.449L484.119 209.094L467.444 116.59L465.476 116.945ZM482.147 209.426C482.274 210.234 482.24 211.059 482.049 211.855L483.993 212.323C484.246 211.273 484.29 210.183 484.123 209.116L482.147 209.426ZM482.049 211.855C481.857 212.651 481.512 213.4 481.032 214.06L482.651 215.236C483.284 214.363 483.741 213.373 483.993 212.323L482.049 211.855ZM481.032 214.06C480.553 214.72 479.949 215.278 479.256 215.701L480.299 217.408C481.218 216.847 482.017 216.108 482.651 215.236L481.032 214.06ZM479.256 215.701C478.564 216.124 477.795 216.405 476.996 216.527L477.298 218.504C478.36 218.342 479.38 217.969 480.299 217.408L479.256 215.701ZM477.014 216.524L360.035 232.198L360.3 234.18L477.28 218.506L477.014 216.524Z" fill="white" mask="url(#path-1-inside-1_0_1)"/>
<path d="M199.883 457.642L199.198 457.965L199.764 458.468L262.385 514.157C262.386 514.158 262.387 514.159 262.389 514.16C262.834 514.574 263.194 515.072 263.448 515.627C263.703 516.183 263.847 516.785 263.87 517.397C263.893 518.008 263.796 518.618 263.584 519.191C263.372 519.761 263.051 520.283 262.639 520.726C262.638 520.728 262.636 520.729 262.635 520.731L215.75 568.76C215.749 568.762 215.747 568.763 215.746 568.764C214.885 569.602 213.733 570.064 212.536 570.051C211.34 570.039 210.193 569.553 209.343 568.697C209.342 568.695 209.34 568.694 209.339 568.692L151.873 507.518L151.355 506.967L151.051 507.66L117.299 584.517C117.298 584.519 117.298 584.52 117.297 584.522C116.787 585.623 115.868 586.474 114.739 586.892C113.611 587.309 112.363 587.26 111.266 586.754C111.265 586.754 111.263 586.753 111.262 586.752L51.0105 557.168C51.009 557.167 51.0076 557.167 51.0061 557.166C50.4676 556.888 49.9883 556.505 49.5962 556.039C49.2029 555.572 48.9051 555.03 48.7202 554.446C48.5353 553.862 48.467 553.247 48.5194 552.637C48.5715 552.029 48.7425 551.438 49.022 550.899C49.0229 550.897 49.0239 550.895 49.0249 550.893L89.5881 477.439L89.9553 476.774L89.1993 476.7L5.44285 468.463C5.44089 468.462 5.43894 468.462 5.43699 468.462C4.841 468.388 4.26464 468.196 3.74089 467.896C3.21539 467.596 2.75314 467.194 2.38103 466.713C2.00891 466.232 1.7343 465.682 1.57312 465.094C1.41241 464.507 1.3677 463.895 1.44151 463.292L11.1343 396.89L11.1348 396.887C11.2184 396.288 11.4216 395.713 11.7319 395.197C12.0422 394.681 12.4532 394.234 12.9396 393.884C13.426 393.534 13.9778 393.288 14.5616 393.16C15.1454 393.033 15.7494 393.026 16.3369 393.141L16.3395 393.141L98.9714 408.826L99.7143 408.967L99.5532 408.228L81.7079 326.407C81.5059 325.22 81.77 324.003 82.4429 323.013C83.1165 322.023 84.1464 321.34 85.3127 321.107L151.558 309.7C152.735 309.53 153.934 309.829 154.9 310.537C155.865 311.245 156.521 312.303 156.727 313.489L167.243 396.677L167.338 397.428L167.991 397.046L240.636 354.627C241.67 354.071 242.878 353.938 244.01 354.256C245.141 354.575 246.11 355.319 246.716 356.338L277.958 415.57C277.959 415.572 277.96 415.574 277.961 415.576C278.232 416.121 278.394 416.714 278.437 417.321C278.48 417.931 278.404 418.543 278.212 419.121C278.02 419.699 277.716 420.233 277.319 420.691C276.922 421.148 276.44 421.52 275.901 421.788C275.899 421.789 275.898 421.789 275.897 421.79L199.883 457.642Z" stroke="#12E066"/>
</svg>
