<svg width="28" height="21" viewBox="0 0 28 21" fill="none" xmlns="http://www.w3.org/2000/svg">
<path d="M11.7597 12.5932L5.69627 5.51374C5.61155 5.41559 5.5078 5.33603 5.39145 5.27998C5.2751 5.22394 5.1486 5.1926 5.01979 5.1879C4.89098 5.1832 4.76258 5.20525 4.64253 5.25267C4.52248 5.30009 4.41333 5.37188 4.32182 5.4636L0.272913 9.55987C0.182136 9.65233 0.111087 9.76263 0.0641574 9.88393C0.0172278 10.0052 -0.00458581 10.135 6.44659e-05 10.2651C0.00471474 10.3953 0.0357301 10.5231 0.0911941 10.6407C0.146658 10.7582 0.225393 10.8631 0.322532 10.9487L10.9162 20.2192C11.1232 20.3992 11.3873 20.4982 11.6605 20.4982C11.9336 20.4982 12.1977 20.3992 12.4048 20.2192L27.6874 6.27584C27.7826 6.18967 27.8594 6.08474 27.9131 5.96749C27.9667 5.85024 27.996 5.72314 27.9993 5.59402C28.0025 5.46489 27.9796 5.33645 27.932 5.2166C27.8843 5.09674 27.8129 4.988 27.7221 4.89705L23.6435 0.775713C23.5532 0.685437 23.4458 0.614528 23.3277 0.567245C23.2096 0.519961 23.0833 0.497277 22.9563 0.500555C22.8293 0.503833 22.7043 0.533005 22.5887 0.58632C22.4732 0.639635 22.3695 0.715993 22.2839 0.810809L11.7597 12.5932Z" fill="#12E066"/>
</svg>
