<svg width="180" height="263" viewBox="0 0 180 263" fill="none" xmlns="http://www.w3.org/2000/svg">
<path d="M111.313 53.2766L110.629 53.5995L111.194 54.1024L145.942 85.0038C145.944 85.005 145.945 85.0062 145.946 85.0074C146.171 85.2166 146.353 85.4687 146.482 85.7493C146.611 86.0314 146.684 86.3365 146.695 86.6469C146.707 86.9573 146.658 87.2666 146.55 87.5568C146.443 87.8453 146.281 88.109 146.073 88.3332C146.072 88.3345 146.071 88.3357 146.07 88.337L120.058 114.983C120.057 114.985 120.056 114.986 120.054 114.987C119.619 115.41 119.037 115.643 118.433 115.637C117.829 115.63 117.249 115.386 116.819 114.953C116.817 114.951 116.816 114.95 116.814 114.948L84.9278 81.0042L84.4098 80.4527L84.1056 81.1455L65.3766 123.794C65.376 123.795 65.3754 123.796 65.3748 123.798C65.1163 124.355 64.651 124.785 64.0809 124.996C63.511 125.207 62.8808 125.182 62.3262 124.927C62.3247 124.927 62.3231 124.926 62.3216 124.925L28.8939 108.512C28.8925 108.511 28.8911 108.51 28.8898 108.51C28.6179 108.369 28.3757 108.175 28.1773 107.94C27.978 107.703 27.8269 107.428 27.7331 107.132C27.6393 106.836 27.6047 106.524 27.6312 106.214C27.6576 105.907 27.7438 105.608 27.8847 105.335L50.3953 64.5718L50.7625 63.9069L50.0065 63.8325L3.52581 59.2612C3.2253 59.2234 2.93457 59.1263 2.67016 58.9753C2.40404 58.8233 2.1698 58.6196 1.98115 58.3758C1.79248 58.1319 1.65318 57.8527 1.57141 57.5543C1.49009 57.2576 1.46732 56.9479 1.50433 56.6429L6.88296 19.7959L6.8834 19.7928C6.92566 19.4899 7.02839 19.1994 7.1851 18.9387C7.34179 18.6782 7.54923 18.4529 7.79456 18.2764C8.03985 18.0999 8.31804 17.9757 8.61231 17.9113C8.90657 17.8469 9.21101 17.8435 9.50726 17.9013L9.50986 17.9018L55.3662 26.6063L56.1091 26.7473L55.948 26.0085L46.0459 -19.3931C45.945 -19.9938 46.0793 -20.609 46.4193 -21.1088C46.7599 -21.6096 47.2801 -21.955 47.8686 -22.0733L84.6251 -28.4022C85.2193 -28.4876 85.8249 -28.336 86.3135 -27.978C86.8009 -27.6207 87.1333 -27.0859 87.2391 -26.4862L93.074 19.6734L93.1689 20.4239L93.8222 20.0425L134.133 -3.49571C134.655 -3.77569 135.265 -3.84236 135.836 -3.68157C136.407 -3.52104 136.897 -3.14572 137.204 -2.6315L154.537 30.2295C154.538 30.2311 154.539 30.2327 154.539 30.2344C154.676 30.5101 154.758 30.8104 154.78 31.1178C154.802 31.4271 154.763 31.7374 154.666 32.0306C154.568 32.3239 154.414 32.5942 154.213 32.8261C154.013 33.0569 153.77 33.2452 153.497 33.3804C153.496 33.381 153.495 33.3816 153.493 33.3823L111.313 53.2766Z" stroke="#12E066"/>
<path d="M226.291 175.011L225.54 175.112L225.928 175.762L259.32 231.84C259.321 231.842 259.322 231.843 259.322 231.844C259.548 232.243 259.694 232.684 259.75 233.141C259.806 233.599 259.772 234.065 259.649 234.51C259.526 234.955 259.317 235.372 259.033 235.735C258.751 236.097 258.401 236.399 258.003 236.624C258.002 236.624 258 236.625 257.999 236.626L211.86 261.22C211.859 261.221 211.857 261.222 211.855 261.223C211.045 261.628 210.111 261.697 209.253 261.415C208.395 261.133 207.681 260.523 207.265 259.713C207.264 259.712 207.263 259.71 207.262 259.708L178.992 200.775L178.665 200.093L178.165 200.661L134.986 249.743C134.985 249.744 134.984 249.745 134.983 249.746C134.365 250.422 133.509 250.823 132.602 250.866C131.695 250.909 130.809 250.589 130.135 249.976C130.133 249.974 130.132 249.973 130.131 249.972L92.3503 213.826C92.3492 213.825 92.3481 213.824 92.347 213.823C92.0232 213.5 91.7658 213.115 91.59 212.691C91.4136 212.265 91.3228 211.807 91.323 211.345C91.3233 210.883 91.4146 210.425 91.5916 209.998C91.7679 209.573 92.0255 209.187 92.3495 208.863C92.351 208.862 92.3524 208.86 92.3539 208.859L139.79 163.907L140.341 163.385L139.643 163.085L79.3662 137.238C78.9548 137.048 78.5843 136.779 78.276 136.445C77.9663 136.109 77.7253 135.714 77.5672 135.283C77.4091 134.852 77.3371 134.394 77.3554 133.934C77.3736 133.475 77.4811 133.025 77.6716 132.609L100.517 85.6168L100.518 85.614C100.715 85.2025 100.992 84.8358 101.333 84.5358C101.674 84.2358 102.071 84.0088 102.501 83.8684C102.93 83.7279 103.383 83.6769 103.832 83.7182C104.281 83.7595 104.716 83.8923 105.113 84.1087L105.115 84.11L162.798 115.218L163.463 115.577L163.533 114.824L169.556 49.9026C169.683 49.0037 170.151 48.1894 170.86 47.632C171.571 47.0739 172.468 46.8176 173.36 46.9159L225.251 54.058C226.136 54.2043 226.93 54.6933 227.464 55.4227C227.997 56.151 228.227 57.0614 228.106 57.961L216.317 122.169L216.18 122.913L216.918 122.747L280.871 108.384C281.742 108.22 282.641 108.4 283.382 108.888C284.123 109.374 284.65 110.13 284.854 111L294.104 162.311C294.104 162.313 294.104 162.315 294.105 162.317C294.175 162.77 294.156 163.233 294.049 163.68C293.941 164.129 293.746 164.551 293.475 164.923C293.205 165.296 292.865 165.61 292.474 165.849C292.085 166.087 291.653 166.244 291.204 166.313C291.202 166.314 291.201 166.314 291.199 166.314L226.291 175.011Z" stroke="white"/>
</svg>
