<svg width="741" height="438" viewBox="0 0 650 438" fill="none" xmlns="http://www.w3.org/2000/svg">
<path d="M429.495 221.126L480.524 221.126" stroke="#282828" stroke-width="2.55146" stroke-miterlimit="10" stroke-dasharray="2.55 5.95"/>
<path d="M637.014 193.247H514.544C499.278 193.247 486.903 205.622 486.903 220.888C486.903 236.154 499.278 248.529 514.544 248.529H637.014C652.279 248.529 664.654 236.154 664.654 220.888C664.654 205.622 652.279 193.247 637.014 193.247Z" fill="#282828"/>
<path d="M637.439 189.42C645.785 189.42 653.789 192.735 659.69 198.637C665.591 204.538 668.907 212.542 668.907 220.888C668.907 229.234 665.591 237.238 659.69 243.139C653.789 249.041 645.785 252.356 637.439 252.356H514.969C506.623 252.356 498.619 249.041 492.718 243.139C486.816 237.238 483.501 229.234 483.501 220.888C483.501 212.542 486.816 204.538 492.718 198.637C498.619 192.735 506.623 189.42 514.969 189.42H637.439ZM637.439 186.869H514.969C505.946 186.869 497.293 190.453 490.914 196.833C484.534 203.213 480.95 211.866 480.95 220.888C480.95 229.911 484.534 238.564 490.914 244.943C497.293 251.323 505.946 254.908 514.969 254.908H637.439C646.461 254.908 655.114 251.323 661.494 244.943C667.874 238.564 671.458 229.911 671.458 220.888C671.458 211.866 667.874 203.213 661.494 196.833C655.114 190.453 646.461 186.869 637.439 186.869Z" fill="white"/>
<path d="M521.797 216.608L523.109 213.789C521.481 212.72 519.221 211.991 516.961 211.991C513.146 211.991 510.595 213.886 510.595 216.851C510.595 222.901 519.731 220.884 519.731 224.432C519.731 225.622 518.638 226.303 516.815 226.303C514.993 226.303 512.685 225.355 510.935 223.8L509.574 226.546C511.397 228.174 514.045 229.267 516.767 229.267C520.509 229.267 523.279 227.42 523.279 224.237C523.303 218.138 514.167 220.009 514.167 216.559C514.167 215.514 515.163 214.955 516.694 214.955C518.006 214.955 519.974 215.514 521.797 216.608ZM534.09 212.04C528.963 212.04 525.026 215.733 525.026 220.641C525.026 225.525 528.963 229.291 534.09 229.291C539.217 229.291 543.153 225.525 543.153 220.641C543.153 215.757 539.217 212.04 534.09 212.04ZM534.138 214.955C537.249 214.955 539.824 217.434 539.824 220.641C539.824 223.849 537.249 226.376 534.138 226.376C531.004 226.376 528.355 223.849 528.355 220.641C528.355 217.434 530.98 214.955 534.138 214.955ZM546.01 212.137V229.146H556.604V226.206H549.266V212.137H546.01ZM562.072 222.05V212.137H558.816V222.05C558.816 226.521 561.732 229.291 566.373 229.291C570.99 229.291 573.832 226.521 573.832 222.05V212.137H570.576V222.05C570.576 224.772 568.948 226.376 566.373 226.376C563.797 226.376 562.072 224.748 562.072 222.05ZM591.904 226.376L589.984 224.237C588.72 225.477 586.995 226.23 585.367 226.23C582.16 226.23 579.657 223.751 579.657 220.568C579.657 217.41 582.16 214.931 585.367 214.931C587.044 214.931 588.769 215.782 589.984 217.142L591.879 214.761C590.227 213.084 587.749 212.04 585.319 212.04C580.24 212.04 576.328 215.757 576.328 220.617C576.328 225.234 579.754 228.83 584.322 229.243L583.423 231.235C583.691 231.187 584.031 231.138 584.274 231.138C585.051 231.138 585.44 231.575 585.44 232.037C585.44 232.523 585.027 233.009 584.347 233.009C583.861 233.009 583.375 232.815 583.01 232.523L582.379 233.981C582.986 234.394 583.788 234.661 584.565 234.661C586.096 234.661 587.263 233.762 587.263 232.304C587.263 231.26 586.607 230.604 585.586 230.361L586.121 229.243C588.283 229 590.373 227.931 591.904 226.376ZM605.89 206.67H603.898C603.898 207.423 603.606 207.812 603.023 207.812C602.245 207.812 601.516 206.524 600.156 206.524C598.625 206.524 597.847 207.666 597.847 209.926H599.84C599.84 209.172 600.131 208.784 600.715 208.784C601.516 208.784 602.124 210.047 603.582 210.047C605.113 210.047 605.89 208.929 605.89 206.67ZM601.978 212.04C596.851 212.04 592.915 215.733 592.915 220.641C592.915 225.525 596.851 229.291 601.978 229.291C607.105 229.291 611.041 225.525 611.041 220.641C611.041 215.757 607.105 212.04 601.978 212.04ZM602.027 214.955C605.137 214.955 607.713 217.434 607.713 220.641C607.713 223.849 605.137 226.376 602.027 226.376C598.892 226.376 596.244 223.849 596.244 220.641C596.244 217.434 598.868 214.955 602.027 214.955ZM613.899 212.137V229.146H626.655V226.303H617.155V222.026H625.416V219.183H617.155V214.98H626.364V212.137H613.899ZM640.654 216.608L641.967 213.789C640.339 212.72 638.079 211.991 635.819 211.991C632.004 211.991 629.453 213.886 629.453 216.851C629.453 222.901 638.589 220.884 638.589 224.432C638.589 225.622 637.496 226.303 635.673 226.303C633.851 226.303 631.543 225.355 629.793 223.8L628.432 226.546C630.255 228.174 632.903 229.267 635.625 229.267C639.367 229.267 642.137 227.42 642.137 224.237C642.161 218.138 633.025 220.009 633.025 216.559C633.025 215.514 634.021 214.955 635.552 214.955C636.864 214.955 638.832 215.514 640.654 216.608Z" fill="white"/>
<path d="M374.928 228.041L387.838 244.047C388.053 244.31 388.21 244.614 388.302 244.941C388.394 245.268 388.418 245.61 388.373 245.946C388.327 246.283 388.214 246.606 388.038 246.897C387.863 247.187 387.63 247.439 387.354 247.636L374.12 257.136C373.566 257.515 372.885 257.661 372.224 257.542C371.564 257.422 370.977 257.047 370.591 256.498L359.126 239.335C359.039 239.205 358.921 239.099 358.783 239.025C358.645 238.952 358.491 238.913 358.335 238.913C358.179 238.913 358.025 238.952 357.887 239.025C357.749 239.099 357.631 239.205 357.544 239.335L346.088 256.489C345.903 256.767 345.664 257.005 345.385 257.189C345.106 257.372 344.793 257.498 344.464 257.558C344.136 257.619 343.799 257.612 343.473 257.54C343.147 257.467 342.839 257.33 342.567 257.136L329.317 247.636C329.04 247.439 328.807 247.187 328.632 246.897C328.457 246.606 328.343 246.283 328.297 245.946C328.252 245.61 328.276 245.268 328.368 244.941C328.46 244.614 328.618 244.31 328.832 244.047L341.759 228.041C341.858 227.917 341.924 227.771 341.952 227.616C341.981 227.461 341.97 227.301 341.921 227.151C341.872 227.001 341.786 226.865 341.672 226.756C341.558 226.647 341.418 226.568 341.266 226.527L321.254 221.067C320.928 220.977 320.624 220.821 320.36 220.61C320.096 220.399 319.878 220.136 319.718 219.837C319.559 219.539 319.463 219.211 319.434 218.874C319.406 218.537 319.446 218.198 319.553 217.877L324.596 202.569C324.7 202.25 324.867 201.956 325.088 201.703C325.309 201.451 325.578 201.246 325.88 201.101C326.182 200.955 326.51 200.872 326.845 200.857C327.18 200.842 327.514 200.895 327.828 201.012L347.321 208.233C347.468 208.288 347.627 208.306 347.782 208.285C347.938 208.264 348.086 208.204 348.213 208.111C348.339 208.018 348.441 207.895 348.508 207.753C348.575 207.611 348.606 207.454 348.597 207.297L347.67 186.818C347.655 186.481 347.708 186.144 347.827 185.829C347.945 185.513 348.126 185.225 348.359 184.981C348.592 184.737 348.872 184.543 349.181 184.409C349.491 184.276 349.825 184.207 350.162 184.207H366.542C366.879 184.207 367.212 184.276 367.522 184.41C367.831 184.543 368.11 184.737 368.342 184.981C368.574 185.225 368.755 185.514 368.872 185.829C368.99 186.145 369.042 186.481 369.026 186.818L368.09 207.263C368.083 207.421 368.115 207.577 368.183 207.719C368.251 207.861 368.354 207.984 368.481 208.076C368.608 208.169 368.756 208.229 368.912 208.25C369.068 208.271 369.227 208.254 369.374 208.199L388.859 200.978C389.173 200.861 389.507 200.808 389.842 200.823C390.177 200.838 390.505 200.921 390.807 201.067C391.109 201.212 391.379 201.417 391.599 201.669C391.82 201.922 391.987 202.216 392.091 202.535L397.143 217.843C397.248 218.164 397.288 218.503 397.259 218.84C397.23 219.176 397.133 219.503 396.974 219.802C396.815 220.1 396.597 220.362 396.334 220.574C396.071 220.786 395.767 220.942 395.442 221.033L375.43 226.493C375.269 226.528 375.121 226.605 374.999 226.716C374.878 226.826 374.787 226.967 374.736 227.123C374.686 227.28 374.677 227.447 374.71 227.607C374.744 227.768 374.819 227.918 374.928 228.041Z" fill="#282828"/>
<path d="M70.7604 220.888H72.0361" stroke="#282828" stroke-width="2.55146" stroke-miterlimit="10"/>
<path d="M103.47 220.888H286.461" stroke="#282828" stroke-width="2.55146" stroke-miterlimit="10" stroke-dasharray="2.53 5.92"/>
<path d="M289.42 220.888H290.696" stroke="#282828" stroke-width="2.55146" stroke-miterlimit="10"/>
<path d="M137.847 67.4605H271.424L351.54 152.492" stroke="#282828" stroke-width="2.55146" stroke-miterlimit="10" stroke-dasharray="2.55 5.95"/>
<path d="M204.355 142.286H272.844L306.728 176.17" stroke="#282828" stroke-width="2.55146" stroke-miterlimit="10" stroke-dasharray="2.55 5.95"/>
<path d="M137.847 374.316H271.424L351.54 289.284" stroke="#282828" stroke-width="2.55146" stroke-miterlimit="10" stroke-dasharray="2.55 5.95"/>
<path d="M204.355 299.49H272.844L306.728 265.607" stroke="#282828" stroke-width="2.55146" stroke-miterlimit="10" stroke-dasharray="2.55 5.95"/>
<path d="M358.344 288.536C395.704 288.536 425.991 258.249 425.991 220.888C425.991 183.527 395.704 153.24 358.344 153.24C320.983 153.24 290.696 183.527 290.696 220.888C290.696 258.249 320.983 288.536 358.344 288.536Z" stroke="white" stroke-width="5.10291" stroke-miterlimit="10"/>
<path d="M135.972 220.437C136.443 220.776 136.443 221.476 135.972 221.816L128.07 227.519C127.508 227.925 126.722 227.523 126.722 226.829L126.722 215.423C126.722 214.73 127.508 214.328 128.07 214.734L135.972 220.437Z" fill="#282828"/>
<path d="M204.011 220.437C204.482 220.776 204.482 221.476 204.011 221.816L196.109 227.519C195.547 227.925 194.761 227.523 194.761 226.829L194.761 215.423C194.761 214.73 195.547 214.328 196.109 214.734L204.011 220.437Z" fill="#282828"/>
<path d="M272.05 220.437C272.521 220.776 272.521 221.476 272.05 221.816L264.148 227.519C263.586 227.925 262.8 227.523 262.8 226.829L262.8 215.423C262.8 214.73 263.586 214.328 264.148 214.734L272.05 220.437Z" fill="#282828"/>
<path d="M234.629 141.767C235.099 142.106 235.099 142.806 234.629 143.146L226.727 148.849C226.164 149.255 225.379 148.853 225.379 148.159L225.379 136.754C225.379 136.06 226.164 135.658 226.727 136.064L234.629 141.767Z" fill="#282828"/>
<path d="M177.646 66.9239C178.117 67.2634 178.117 67.9638 177.646 68.3032L169.744 74.006C169.182 74.412 168.396 74.01 168.396 73.3164L168.396 61.9108C168.396 61.2171 169.182 60.8152 169.744 61.2211L177.646 66.9239Z" fill="#282828"/>
<path d="M259.718 66.9239C260.189 67.2634 260.189 67.9638 259.718 68.3032L251.816 74.006C251.254 74.412 250.468 74.01 250.468 73.3164L250.468 61.9108C250.468 61.2171 251.254 60.8152 251.816 61.2211L259.718 66.9239Z" fill="#282828"/>
<path d="M322.473 120.783C322.566 121.356 322.07 121.851 321.498 121.759L311.878 120.204C311.193 120.093 310.922 119.253 311.412 118.763L319.477 110.698C319.968 110.207 320.807 110.478 320.918 111.163L322.473 120.783Z" fill="#282828"/>
<path d="M295.258 164.158C295.35 164.731 294.855 165.226 294.282 165.133L284.662 163.578C283.977 163.468 283.706 162.628 284.197 162.137L292.262 154.072C292.752 153.582 293.592 153.853 293.703 154.538L295.258 164.158Z" fill="#282828"/>
<path d="M460.858 220.437C461.328 220.776 461.328 221.476 460.858 221.816L452.956 227.519C452.393 227.925 451.608 227.523 451.608 226.829L451.608 215.423C451.608 214.73 452.393 214.328 452.956 214.734L460.858 220.437Z" fill="#282828"/>
<path d="M443.848 220.437C444.319 220.776 444.319 221.476 443.848 221.816L435.946 227.519C435.384 227.925 434.598 227.523 434.598 226.829L434.598 215.423C434.598 214.73 435.384 214.328 435.946 214.734L443.848 220.437Z" fill="#282828"/>
<path d="M477.868 220.437C478.338 220.776 478.338 221.476 477.868 221.816L469.966 227.519C469.403 227.925 468.617 227.523 468.617 226.829L468.617 215.423C468.617 214.73 469.403 214.328 469.966 214.734L477.868 220.437Z" fill="#282828"/>
<path d="M290.455 280.483C291.028 280.391 291.523 280.886 291.43 281.459L289.875 291.079C289.765 291.764 288.925 292.035 288.434 291.544L280.369 283.48C279.879 282.989 280.15 282.149 280.835 282.039L290.455 280.483Z" fill="#282828"/>
<path d="M288.754 355.326C289.327 355.234 289.822 355.729 289.73 356.301L288.174 365.922C288.064 366.606 287.224 366.878 286.733 366.387L278.669 358.322C278.178 357.832 278.449 356.992 279.134 356.881L288.754 355.326Z" fill="#282828"/>
<path d="M338.082 301.746C338.655 301.653 339.15 302.148 339.058 302.721L337.503 312.341C337.392 313.026 336.552 313.297 336.062 312.807L327.997 304.742C327.506 304.251 327.778 303.411 328.462 303.301L338.082 301.746Z" fill="#282828"/>
<path d="M221.021 373.949C221.491 374.289 221.491 374.989 221.021 375.328L213.119 381.031C212.557 381.437 211.771 381.035 211.771 380.342L211.771 368.936C211.771 368.242 212.557 367.84 213.119 368.246L221.021 373.949Z" fill="#282828"/>
<path d="M153.833 373.949C154.303 374.289 154.303 374.989 153.833 375.328L145.931 381.031C145.368 381.437 144.582 381.035 144.582 380.342L144.582 368.936C144.582 368.242 145.368 367.84 145.931 368.246L153.833 373.949Z" fill="#282828"/>
<path d="M241.433 299.106C241.903 299.446 241.903 300.146 241.433 300.486L233.531 306.189C232.968 306.594 232.183 306.193 232.183 305.499L232.183 294.093C232.183 293.4 232.968 292.998 233.531 293.404L241.433 299.106Z" fill="#282828"/>
<path d="M165.428 175.166C183.169 175.166 197.551 160.784 197.551 143.043C197.551 125.302 183.169 110.92 165.428 110.92C147.687 110.92 133.305 125.302 133.305 143.043C133.305 160.784 147.687 175.166 165.428 175.166Z" fill="white"/>
<path d="M165.428 174.409C183.169 174.409 197.551 160.027 197.551 142.286C197.551 124.545 183.169 110.163 165.428 110.163C147.687 110.163 133.305 124.545 133.305 142.286C133.305 160.027 147.687 174.409 165.428 174.409Z" fill="white"/>
<path d="M165.428 180.83C186.715 180.83 203.972 163.573 203.972 142.286C203.972 120.999 186.715 103.742 165.428 103.742C144.141 103.742 126.884 120.999 126.884 142.286C126.884 163.573 144.141 180.83 165.428 180.83Z" stroke="white" stroke-width="2.55146" stroke-miterlimit="10"/>
<mask id="mask0_64_170" style="mask-type:alpha" maskUnits="userSpaceOnUse" x="141" y="119" width="49" height="49">
<rect x="141.181" y="119.068" width="48.4777" height="48.4777" fill="#D9D9D9"/>
</mask>
<g mask="url(#mask0_64_170)">
<path d="M152.543 159.466C151.634 159.466 150.859 159.146 150.22 158.507C149.58 157.867 149.26 157.093 149.26 156.184V130.43C149.26 129.521 149.58 128.747 150.22 128.107C150.859 127.467 151.634 127.148 152.543 127.148H178.296C179.205 127.148 179.98 127.467 180.619 128.107C181.259 128.747 181.579 129.521 181.579 130.43V156.184C181.579 157.093 181.259 157.867 180.619 158.507C179.98 159.146 179.205 159.466 178.296 159.466H152.543ZM152.543 157.446H178.296C178.667 157.446 178.97 157.328 179.205 157.093C179.441 156.857 179.559 156.554 179.559 156.184V133.207H151.28V156.184C151.28 156.554 151.398 156.857 151.634 157.093C151.869 157.328 152.172 157.446 152.543 157.446ZM156.33 142.297C156.061 142.297 155.825 142.196 155.623 141.994C155.421 141.792 155.32 141.556 155.32 141.287C155.32 140.984 155.421 140.739 155.623 140.554C155.825 140.369 156.061 140.277 156.33 140.277H174.509C174.778 140.277 175.014 140.378 175.216 140.58C175.418 140.782 175.519 141.018 175.519 141.287C175.519 141.59 175.418 141.834 175.216 142.02C175.014 142.205 174.778 142.297 174.509 142.297H156.33ZM156.33 150.376C156.061 150.376 155.825 150.275 155.623 150.073C155.421 149.871 155.32 149.636 155.32 149.366C155.32 149.064 155.421 148.819 155.623 148.633C155.825 148.449 156.061 148.357 156.33 148.357H166.429C166.699 148.357 166.934 148.458 167.136 148.66C167.338 148.862 167.439 149.097 167.439 149.366C167.439 149.669 167.338 149.914 167.136 150.1C166.934 150.284 166.699 150.376 166.429 150.376H156.33Z" fill="#12E066"/>
</g>
<path d="M64.9091 253.011C82.65 253.011 97.0319 238.629 97.0319 220.888C97.0319 203.147 82.65 188.765 64.9091 188.765C47.1681 188.765 32.7862 203.147 32.7862 220.888C32.7862 238.629 47.1681 253.011 64.9091 253.011Z" fill="white"/>
<path d="M64.909 259.432C86.1963 259.432 103.453 242.175 103.453 220.888C103.453 199.601 86.1963 182.344 64.909 182.344C43.6218 182.344 26.365 199.601 26.365 220.888C26.365 242.175 43.6218 259.432 64.909 259.432Z" stroke="white" stroke-width="2.55146" stroke-miterlimit="10"/>
<mask id="mask1_64_170" style="mask-type:alpha" maskUnits="userSpaceOnUse" x="40" y="196" width="50" height="49">
<rect x="40.8233" y="196.462" width="48.4777" height="48.4777" fill="#D9D9D9"/>
</mask>
<g mask="url(#mask1_64_170)">
<path d="M56.7806 211.914C55.8716 211.914 55.0974 211.595 54.4577 210.955C53.8181 210.315 53.4983 209.558 53.4983 208.683V206.865C53.4983 205.956 53.8181 205.189 54.4577 204.566C55.0974 203.944 55.8548 203.633 56.7301 203.633H73.3438C74.2528 203.633 75.0271 203.944 75.6667 204.566C76.3063 205.189 76.6262 205.956 76.6262 206.865V208.683C76.6262 209.558 76.3063 210.315 75.6667 210.955C75.0271 211.595 74.2696 211.914 73.3943 211.914H56.7806ZM56.9826 209.894H73.1418C73.5795 209.894 73.9329 209.76 74.2023 209.49C74.4716 209.221 74.6062 208.868 74.6062 208.43V207.117C74.6062 206.646 74.4716 206.284 74.2023 206.03C73.9329 205.779 73.5795 205.653 73.1418 205.653H56.9826C56.5449 205.653 56.1915 205.779 55.9221 206.03C55.6528 206.284 55.5182 206.646 55.5182 207.117V208.43C55.5182 208.868 55.6528 209.221 55.9221 209.49C56.1915 209.76 56.5449 209.894 56.9826 209.894ZM51.2259 236.153C50.3169 236.153 49.5514 235.833 48.9292 235.194C48.3058 234.554 47.994 233.797 47.994 232.921V230.901H82.1304V232.921C82.1304 233.797 81.8193 234.554 81.1972 235.194C80.5737 235.833 79.8075 236.153 78.8985 236.153H51.2259ZM47.994 229.336L53.9527 215.904C54.2221 215.298 54.618 214.818 55.1404 214.463C55.6616 214.111 56.2588 213.934 56.9321 213.934H73.1923C73.8656 213.934 74.4635 214.111 74.986 214.463C75.5071 214.818 75.9024 215.298 76.1717 215.904L82.1304 229.336H47.994ZM58.447 226.003H60.4669C60.6689 226.003 60.8541 225.919 61.0224 225.751C61.1907 225.582 61.2749 225.397 61.2749 225.195C61.2749 224.993 61.1907 224.816 61.0224 224.664C60.8541 224.513 60.6689 224.438 60.4669 224.438H58.447C58.245 224.438 58.0686 224.513 57.9178 224.664C57.7656 224.816 57.6896 224.993 57.6896 225.195C57.6896 225.397 57.7656 225.582 57.9178 225.751C58.0686 225.919 58.245 226.003 58.447 226.003ZM58.447 222.418H60.4669C60.6689 222.418 60.8541 222.342 61.0224 222.192C61.1907 222.039 61.2749 221.846 61.2749 221.61C61.2749 221.408 61.1907 221.232 61.0224 221.081C60.8541 220.929 60.6689 220.852 60.4669 220.852H58.447C58.245 220.852 58.0686 220.929 57.9178 221.081C57.7656 221.232 57.6896 221.408 57.6896 221.61C57.6896 221.846 57.7656 222.039 57.9178 222.192C58.0686 222.342 58.245 222.418 58.447 222.418ZM58.447 218.833H60.4669C60.6689 218.833 60.8541 218.756 61.0224 218.604C61.1907 218.453 61.2749 218.277 61.2749 218.075C61.2749 217.873 61.1907 217.688 61.0224 217.52C60.8541 217.351 60.6689 217.267 60.4669 217.267H58.447C58.245 217.267 58.0686 217.351 57.9178 217.52C57.7656 217.688 57.6896 217.873 57.6896 218.075C57.6896 218.277 57.7656 218.453 57.9178 218.604C58.0686 218.756 58.245 218.833 58.447 218.833ZM64.0523 226.003H66.0722C66.2741 226.003 66.4506 225.919 66.6014 225.751C66.7535 225.582 66.8296 225.397 66.8296 225.195C66.8296 224.993 66.7535 224.816 66.6014 224.664C66.4506 224.513 66.2741 224.438 66.0722 224.438H64.0523C63.8503 224.438 63.6739 224.513 63.523 224.664C63.3709 224.816 63.2948 224.993 63.2948 225.195C63.2948 225.397 63.3709 225.582 63.523 225.751C63.6739 225.919 63.8503 226.003 64.0523 226.003ZM64.0523 222.418H66.0722C66.2741 222.418 66.4506 222.342 66.6014 222.192C66.7535 222.039 66.8296 221.846 66.8296 221.61C66.8296 221.408 66.7535 221.232 66.6014 221.081C66.4506 220.929 66.2741 220.852 66.0722 220.852H64.0523C63.8503 220.852 63.6739 220.929 63.523 221.081C63.3709 221.232 63.2948 221.408 63.2948 221.61C63.2948 221.846 63.3709 222.039 63.523 222.192C63.6739 222.342 63.8503 222.418 64.0523 222.418ZM64.0523 218.833H66.0722C66.2741 218.833 66.4506 218.756 66.6014 218.604C66.7535 218.453 66.8296 218.277 66.8296 218.075C66.8296 217.873 66.7535 217.688 66.6014 217.52C66.4506 217.351 66.2741 217.267 66.0722 217.267H64.0523C63.8503 217.267 63.6739 217.351 63.523 217.52C63.3709 217.688 63.2948 217.873 63.2948 218.075C63.2948 218.277 63.3709 218.453 63.523 218.604C63.6739 218.756 63.8503 218.833 64.0523 218.833ZM69.6575 226.003H71.6774C71.8794 226.003 72.0565 225.919 72.2086 225.751C72.3594 225.582 72.4349 225.397 72.4349 225.195C72.4349 224.993 72.3594 224.816 72.2086 224.664C72.0565 224.513 71.8794 224.438 71.6774 224.438H69.6575C69.4555 224.438 69.2703 224.513 69.102 224.664C68.9337 224.816 68.8495 224.993 68.8495 225.195C68.8495 225.397 68.9337 225.582 69.102 225.751C69.2703 225.919 69.4555 226.003 69.6575 226.003ZM69.6575 222.418H71.6774C71.8794 222.418 72.0565 222.342 72.2086 222.192C72.3594 222.039 72.4349 221.846 72.4349 221.61C72.4349 221.408 72.3594 221.232 72.2086 221.081C72.0565 220.929 71.8794 220.852 71.6774 220.852H69.6575C69.4555 220.852 69.2703 220.929 69.102 221.081C68.9337 221.232 68.8495 221.408 68.8495 221.61C68.8495 221.846 68.9337 222.039 69.102 222.192C69.2703 222.342 69.4555 222.418 69.6575 222.418ZM69.6575 218.833H71.6774C71.8794 218.833 72.0565 218.756 72.2086 218.604C72.3594 218.453 72.4349 218.277 72.4349 218.075C72.4349 217.873 72.3594 217.688 72.2086 217.52C72.0565 217.351 71.8794 217.267 71.6774 217.267H69.6575C69.4555 217.267 69.2703 217.351 69.102 217.52C68.9337 217.688 68.8495 217.873 68.8495 218.075C68.8495 218.277 68.9337 218.453 69.102 218.604C69.2703 218.756 69.4555 218.833 69.6575 218.833Z" fill="#12E066"/>
</g>
<path d="M165.428 331.613C183.169 331.613 197.551 317.231 197.551 299.49C197.551 281.749 183.169 267.367 165.428 267.367C147.687 267.367 133.305 281.749 133.305 299.49C133.305 317.231 147.687 331.613 165.428 331.613Z" fill="white"/>
<path d="M165.428 338.034C186.715 338.034 203.972 320.777 203.972 299.49C203.972 278.203 186.715 260.946 165.428 260.946C144.141 260.946 126.884 278.203 126.884 299.49C126.884 320.777 144.141 338.034 165.428 338.034Z" stroke="white" stroke-width="2.55146" stroke-miterlimit="10"/>
<mask id="mask2_64_170" style="mask-type:alpha" maskUnits="userSpaceOnUse" x="141" y="274" width="49" height="50">
<rect x="141.181" y="274.707" width="48.4777" height="48.4777" fill="#D9D9D9"/>
</mask>
<g mask="url(#mask2_64_170)">
<path d="M154.31 313.085C151.785 313.085 149.639 312.21 147.871 310.459C146.104 308.708 145.22 306.571 145.22 304.046C145.22 301.723 146.012 299.661 147.594 297.859C149.176 296.059 151.145 295.091 153.502 294.956C153.839 292.465 155.093 290.167 157.265 288.062C159.436 285.959 161.817 284.907 164.41 284.907C164.948 284.907 165.419 285.109 165.823 285.513C166.227 285.917 166.429 286.389 166.429 286.927V301.672L169.863 298.239C170.065 298.037 170.301 297.928 170.57 297.911C170.84 297.894 171.092 298.003 171.328 298.239C171.53 298.441 171.631 298.676 171.631 298.946C171.631 299.215 171.53 299.451 171.328 299.653L166.581 304.399C166.379 304.568 166.186 304.694 166.001 304.777C165.815 304.862 165.621 304.904 165.419 304.904C165.217 304.904 165.024 304.862 164.84 304.777C164.654 304.694 164.46 304.568 164.258 304.399L159.511 299.653C159.343 299.484 159.251 299.257 159.235 298.97C159.217 298.684 159.309 298.441 159.511 298.239C159.747 298.003 159.991 297.885 160.244 297.885C160.496 297.885 160.74 298.003 160.976 298.239L164.41 301.672V286.927C161.885 287.062 159.738 288.173 157.97 290.26C156.203 292.347 155.32 294.569 155.32 296.926H154.31C152.357 296.926 150.691 297.616 149.311 298.996C147.93 300.376 147.24 302.043 147.24 303.995C147.24 305.948 147.93 307.614 149.311 308.995C150.691 310.375 152.357 311.065 154.31 311.065H178.549C179.963 311.065 181.158 310.577 182.134 309.601C183.11 308.624 183.599 307.429 183.599 306.015C183.599 304.601 183.11 303.406 182.134 302.43C181.158 301.454 179.963 300.966 178.549 300.966H175.519V296.926C175.519 295.242 175.149 293.703 174.408 292.306C173.667 290.908 172.691 289.755 171.479 288.846V286.422C173.364 287.5 174.846 288.972 175.923 290.84C177 292.709 177.539 294.737 177.539 296.926V298.946H178.801C180.72 299.013 182.336 299.728 183.649 301.091C184.962 302.455 185.618 304.096 185.618 306.015C185.618 308.002 184.937 309.677 183.574 311.041C182.21 312.404 180.535 313.085 178.549 313.085H154.31Z" fill="#12E066"/>
</g>
<path d="M98.9201 99.5833C116.661 99.5833 131.043 85.2015 131.043 67.4605C131.043 49.7196 116.661 35.3377 98.9201 35.3377C81.1791 35.3377 66.7973 49.7196 66.7973 67.4605C66.7973 85.2015 81.1791 99.5833 98.9201 99.5833Z" fill="white"/>
<path d="M98.92 106.005C120.207 106.005 137.464 88.7478 137.464 67.4605C137.464 46.1732 120.207 28.9165 98.92 28.9165C77.6328 28.9165 60.376 46.1732 60.376 67.4605C60.376 88.7478 77.6328 106.005 98.92 106.005Z" stroke="white" stroke-width="2.55146" stroke-miterlimit="10"/>
<mask id="mask3_64_170" style="mask-type:alpha" maskUnits="userSpaceOnUse" x="74" y="42" width="50" height="50">
<rect x="74.8428" y="42.5243" width="48.4777" height="48.4777" fill="#D9D9D9"/>
</mask>
<g mask="url(#mask3_64_170)">
<path d="M101.405 84.9422H96.7083C96.338 84.9422 96.0013 84.8075 95.6984 84.5382C95.3954 84.2689 95.2102 83.9323 95.1429 83.5283L94.5874 79.0845C93.9478 78.9162 93.2496 78.6219 92.4928 78.2018C91.7346 77.7803 91.1031 77.3339 90.5981 76.8626L86.5583 78.5795C86.1543 78.7478 85.7591 78.7647 85.3726 78.63C84.9848 78.4954 84.6899 78.2429 84.4879 77.8726L82.1145 73.8327C81.9125 73.4624 81.8539 73.0753 81.9388 72.6713C82.0223 72.2673 82.2323 71.9475 82.569 71.7118L86.1038 69.0355C86.0365 68.6988 85.9779 68.3366 85.9281 67.9488C85.8769 67.5623 85.8513 67.1839 85.8513 66.8136C85.8513 66.4769 85.8769 66.1147 85.9281 65.7269C85.9779 65.3404 86.0365 64.9283 86.1038 64.4907L82.569 61.8143C82.2323 61.5787 82.0223 61.2588 81.9388 60.8549C81.8539 60.4509 81.9125 60.0637 82.1145 59.6934L84.4879 55.7041C84.6899 55.3338 84.976 55.0813 85.3464 54.9466C85.7167 54.812 86.1038 54.8288 86.5078 54.9971L90.5476 56.7141C91.1536 56.2091 91.802 55.7546 92.4928 55.3506C93.1822 54.9466 93.8636 54.6437 94.5369 54.4417L95.1429 49.9979C95.2102 49.5939 95.3954 49.2573 95.6984 48.9879C96.0013 48.7186 96.338 48.584 96.7083 48.584H101.405C101.809 48.584 102.162 48.7186 102.465 48.9879C102.768 49.2573 102.953 49.5939 103.021 49.9979L103.576 54.4417C104.35 54.7447 105.032 55.0645 105.622 55.4011C106.211 55.7378 106.825 56.1754 107.464 56.7141L111.656 54.9971C112.06 54.8288 112.447 54.812 112.817 54.9466C113.187 55.0813 113.474 55.317 113.675 55.6536L116.049 59.6934C116.251 60.0637 116.31 60.4509 116.227 60.8549C116.142 61.2588 115.931 61.5787 115.594 61.8143L111.908 64.5917C112.043 64.9957 112.11 65.3747 112.11 65.7289V66.7631C112.11 67.0661 112.102 67.3946 112.086 67.7488C112.068 68.1016 112.009 68.5305 111.908 69.0355L115.493 71.7118C115.864 71.9475 116.083 72.2673 116.15 72.6713C116.217 73.0753 116.15 73.4624 115.948 73.8327L113.574 77.8726C113.373 78.2429 113.078 78.4866 112.692 78.6038C112.304 78.7223 111.908 78.6973 111.504 78.529L107.464 76.8121C106.825 77.3507 106.194 77.8052 105.572 78.1755C104.948 78.5459 104.283 78.8488 103.576 79.0845L103.021 83.5283C102.953 83.9323 102.768 84.2689 102.465 84.5382C102.162 84.8075 101.809 84.9422 101.405 84.9422ZM99.0312 71.8128C100.445 71.8128 101.64 71.3247 102.617 70.3484C103.593 69.3721 104.081 68.177 104.081 66.7631C104.081 65.3491 103.593 64.154 102.617 63.1778C101.64 62.2015 100.445 61.7133 99.0312 61.7133C97.6173 61.7133 96.4222 62.2015 95.4459 63.1778C94.4696 64.154 93.9814 65.3491 93.9814 66.7631C93.9814 68.177 94.4696 69.3721 95.4459 70.3484C96.4222 71.3247 97.6173 71.8128 99.0312 71.8128ZM99.0312 69.7929C98.1896 69.7929 97.4745 69.498 96.8861 68.9082C96.2963 68.3198 96.0013 67.6047 96.0013 66.7631C96.0013 65.9215 96.2963 65.2064 96.8861 64.6179C97.4745 64.0281 98.1896 63.7332 99.0312 63.7332C99.8728 63.7332 100.589 64.0281 101.178 64.6179C101.767 65.2064 102.061 65.9215 102.061 66.7631C102.061 67.6047 101.767 68.3198 101.178 68.9082C100.589 69.498 99.8728 69.7929 99.0312 69.7929ZM97.0618 82.9223H101.001L101.758 77.4686C102.768 77.1992 103.686 76.8289 104.511 76.3576C105.335 75.8863 106.168 75.2298 107.01 74.3882L112.009 76.5596L114.029 73.1258L109.636 69.7929C109.804 69.2206 109.914 68.6901 109.965 68.2013C110.015 67.7138 110.04 67.2344 110.04 66.7631C110.04 66.2581 110.015 65.778 109.965 65.3229C109.914 64.8691 109.804 64.356 109.636 63.7837L114.13 60.4004L112.11 56.9666L106.959 59.1379C106.353 58.4646 105.554 57.8331 104.562 57.2433C103.568 56.6548 102.617 56.2596 101.708 56.0576L101.102 50.6039H97.0618L96.4558 56.0576C95.4459 56.2596 94.5113 56.6043 93.6522 57.0918C92.7944 57.5806 91.9447 58.2458 91.1031 59.0875L86.0533 56.9666L84.0334 60.4004L88.4267 63.6827C88.2584 64.1204 88.1406 64.6085 88.0732 65.1472C88.0059 65.6858 87.9722 66.2413 87.9722 66.8136C87.9722 67.3186 88.0059 67.8235 88.0732 68.3285C88.1406 68.8335 88.2416 69.3216 88.3762 69.7929L84.0334 73.1258L86.0533 76.5596L91.0526 74.4387C91.8605 75.2467 92.6853 75.8863 93.527 76.3576C94.3686 76.8289 95.328 77.1992 96.4053 77.4686L97.0618 82.9223Z" fill="#12E066"/>
</g>
<path d="M98.9201 406.439C116.661 406.439 131.043 392.057 131.043 374.316C131.043 356.575 116.661 342.193 98.9201 342.193C81.1791 342.193 66.7973 356.575 66.7973 374.316C66.7973 392.057 81.1791 406.439 98.9201 406.439Z" fill="white"/>
<path d="M98.92 412.86C120.207 412.86 137.464 395.603 137.464 374.316C137.464 353.028 120.207 335.772 98.92 335.772C77.6328 335.772 60.376 353.028 60.376 374.316C60.376 395.603 77.6328 412.86 98.92 412.86Z" stroke="white" stroke-width="2.55146" stroke-miterlimit="10"/>
<mask id="mask4_64_170" style="mask-type:alpha" maskUnits="userSpaceOnUse" x="73" y="350" width="50" height="49">
<rect x="73.9923" y="350.4" width="48.4777" height="48.4777" fill="#D9D9D9"/>
</mask>
<g mask="url(#mask4_64_170)">
<path d="M87.9804 391.808C85.5226 391.808 83.4182 390.933 81.6674 389.182C79.9174 387.431 79.0423 385.327 79.0423 382.87C79.0423 381.22 79.4463 379.722 80.2543 378.375C81.0622 377.029 82.1227 375.969 83.4356 375.194C83.7717 374.992 84.0828 374.95 84.3688 375.068C84.6556 375.186 84.7991 375.447 84.7991 375.851C84.7991 376.053 84.7486 376.221 84.6476 376.356C84.5466 376.49 84.4116 376.608 84.2428 376.709C83.1997 377.315 82.3582 378.165 81.7183 379.259C81.0784 380.354 80.7584 381.557 80.7584 382.87C80.7584 384.856 81.4654 386.556 82.8793 387.97C84.2933 389.384 85.9936 390.091 87.9804 390.091C89.8993 390.091 91.5572 389.426 92.9542 388.096C94.3512 386.766 95.1002 385.159 95.2012 383.274C95.2351 382.904 95.3696 382.601 95.6047 382.365C95.8407 382.129 96.1271 382.011 96.464 382.011H106.311C106.513 381.574 106.808 381.22 107.195 380.951C107.582 380.682 108.011 380.547 108.482 380.547C109.122 380.547 109.669 380.774 110.123 381.229C110.577 381.683 110.805 382.23 110.805 382.87C110.805 383.509 110.577 384.056 110.123 384.511C109.669 384.965 109.122 385.192 108.482 385.192C108.011 385.192 107.582 385.066 107.195 384.814C106.808 384.561 106.513 384.199 106.311 383.728H96.9185C96.5816 386.219 95.5462 388.189 93.8123 389.637C92.0784 391.084 90.1344 391.808 87.9804 391.808ZM87.9804 385.192C87.3405 385.192 86.7935 384.965 86.3394 384.511C85.8846 384.056 85.6571 383.509 85.6571 382.87C85.6571 382.23 85.9096 381.666 86.4146 381.178C86.9195 380.69 87.576 380.497 88.384 380.598L93.7868 371.457C92.6427 370.582 91.7762 369.53 91.1872 368.302C90.5974 367.073 90.3025 365.768 90.3025 364.388C90.3025 361.93 91.1779 359.826 92.9288 358.075C94.6796 356.325 96.7835 355.45 99.2406 355.45C101.53 355.45 103.508 356.208 105.174 357.723C106.841 359.237 107.809 361.106 108.078 363.328C108.145 363.597 108.078 363.815 107.876 363.983C107.674 364.152 107.455 364.237 107.22 364.237C107.018 364.237 106.841 364.161 106.689 364.009C106.538 363.858 106.429 363.664 106.361 363.428C106.159 361.678 105.385 360.196 104.039 358.984C102.692 357.772 101.092 357.166 99.2406 357.166C97.2546 357.166 95.5546 357.873 94.1407 359.287C92.7268 360.701 92.0198 362.401 92.0198 364.388C92.0198 365.566 92.2808 366.66 92.8027 367.67C93.3247 368.68 94.0736 369.556 95.0497 370.296C95.3526 370.498 95.5462 370.767 95.6302 371.104C95.7142 371.441 95.6722 371.744 95.5041 372.013L89.848 381.507C89.9829 381.709 90.0924 381.927 90.1764 382.163C90.2605 382.398 90.3025 382.634 90.3025 382.87C90.3025 383.509 90.0754 384.056 89.6214 384.511C89.1665 384.965 88.6195 385.192 87.9804 385.192ZM108.482 391.808C107.54 391.808 106.631 391.665 105.755 391.378C104.88 391.092 104.089 390.68 103.382 390.142C103.012 389.872 102.869 389.552 102.953 389.182C103.037 388.812 103.281 388.627 103.685 388.627C103.853 388.627 104.004 388.661 104.139 388.728C104.274 388.795 104.426 388.862 104.594 388.93C105.166 389.3 105.78 389.586 106.437 389.788C107.093 389.99 107.775 390.091 108.482 390.091C110.468 390.091 112.169 389.384 113.583 387.97C114.997 386.556 115.704 384.856 115.704 382.87C115.704 380.884 114.997 379.183 113.583 377.769C112.169 376.355 110.468 375.648 108.482 375.648C108.145 375.648 107.817 375.674 107.498 375.725C107.178 375.775 106.866 375.834 106.563 375.902C106.226 376.036 105.881 376.027 105.528 375.876C105.174 375.724 104.913 375.514 104.745 375.245L99.6453 366.661C98.9384 366.795 98.307 366.635 97.7511 366.181C97.196 365.726 96.9185 365.128 96.9185 364.388C96.9185 363.748 97.1455 363.201 97.5996 362.747C98.0545 362.292 98.6015 362.065 99.2406 362.065C99.8805 362.065 100.428 362.292 100.883 362.747C101.337 363.201 101.564 363.748 101.564 364.388C101.564 364.623 101.522 364.85 101.438 365.069C101.354 365.288 101.244 365.499 101.109 365.701L106.16 374.235C106.53 374.167 106.908 374.1 107.295 374.033C107.682 373.966 108.078 373.932 108.482 373.932C110.939 373.932 113.044 374.807 114.795 376.557C116.545 378.308 117.42 380.413 117.42 382.87C117.42 385.327 116.545 387.431 114.795 389.182C113.044 390.933 110.939 391.808 108.482 391.808Z" fill="#12E066"/>
</g>
</svg>
