<svg width="298" height="402" viewBox="0 0 298 402" fill="none" xmlns="http://www.w3.org/2000/svg">
<path d="M197.677 354.546H103.423C91.6745 354.546 82.1504 364.07 82.1504 375.818C82.1504 387.567 91.6745 397.091 103.423 397.091H197.677C209.426 397.091 218.95 387.567 218.95 375.818C218.95 364.07 209.426 354.546 197.677 354.546Z" fill="#282828"/>
<path d="M198.006 351.6C204.429 351.6 210.589 354.152 215.131 358.693C219.672 363.235 222.224 369.395 222.224 375.818C222.224 382.241 219.672 388.401 215.131 392.943C210.589 397.485 204.429 400.036 198.006 400.036H103.751C97.3283 400.036 91.1683 397.485 86.6265 392.943C82.0848 388.401 79.5332 382.241 79.5332 375.818C79.5332 369.395 82.0848 363.235 86.6265 358.693C91.1683 354.152 97.3283 351.6 103.751 351.6H198.006ZM198.006 349.636H103.751C96.8075 349.636 90.1481 352.395 85.238 357.305C80.328 362.215 77.5696 368.874 77.5696 375.818C77.5696 382.762 80.328 389.422 85.238 394.332C90.1481 399.242 96.8075 402 103.751 402H198.006C204.95 402 211.609 399.242 216.519 394.332C221.429 389.422 224.187 382.762 224.187 375.818C224.187 368.874 221.429 362.215 216.519 357.305C211.609 352.395 204.95 349.636 198.006 349.636Z" fill="white"/>
<path d="M109.006 372.054L110.016 369.884C108.763 369.061 107.024 368.5 105.285 368.5C102.349 368.5 100.385 369.959 100.385 372.241C100.385 376.897 107.417 375.345 107.417 378.075C107.417 378.991 106.575 379.515 105.172 379.515C103.77 379.515 101.993 378.786 100.647 377.589L99.5998 379.702C101.002 380.955 103.041 381.796 105.135 381.796C108.015 381.796 110.147 380.375 110.147 377.925C110.165 373.232 103.134 374.672 103.134 372.016C103.134 371.212 103.901 370.782 105.079 370.782C106.089 370.782 107.604 371.212 109.006 372.054ZM118.467 368.538C114.521 368.538 111.492 371.38 111.492 375.158C111.492 378.917 114.521 381.815 118.467 381.815C122.413 381.815 125.442 378.917 125.442 375.158C125.442 371.399 122.413 368.538 118.467 368.538ZM118.504 370.782C120.898 370.782 122.88 372.689 122.88 375.158C122.88 377.626 120.898 379.571 118.504 379.571C116.092 379.571 114.054 377.626 114.054 375.158C114.054 372.689 116.073 370.782 118.504 370.782ZM127.641 368.613V381.703H135.795V379.44H130.147V368.613H127.641ZM140.003 376.242V368.613H137.497V376.242C137.497 379.683 139.741 381.815 143.313 381.815C146.866 381.815 149.054 379.683 149.054 376.242V368.613H146.548V376.242C146.548 378.337 145.295 379.571 143.313 379.571C141.33 379.571 140.003 378.318 140.003 376.242ZM162.961 379.571L161.484 377.925C160.512 378.879 159.184 379.459 157.931 379.459C155.462 379.459 153.536 377.551 153.536 375.102C153.536 372.671 155.462 370.763 157.931 370.763C159.221 370.763 160.549 371.418 161.484 372.465L162.943 370.632C161.671 369.342 159.764 368.538 157.894 368.538C153.985 368.538 150.974 371.399 150.974 375.139C150.974 378.692 153.611 381.46 157.127 381.778L156.435 383.311C156.641 383.274 156.902 383.236 157.089 383.236C157.688 383.236 157.987 383.573 157.987 383.928C157.987 384.302 157.669 384.676 157.146 384.676C156.772 384.676 156.397 384.527 156.117 384.302L155.631 385.424C156.098 385.742 156.715 385.948 157.314 385.948C158.492 385.948 159.39 385.256 159.39 384.134C159.39 383.33 158.885 382.825 158.099 382.638L158.511 381.778C160.175 381.591 161.783 380.768 162.961 379.571ZM173.726 364.405H172.192C172.192 364.985 171.968 365.284 171.519 365.284C170.92 365.284 170.359 364.293 169.312 364.293C168.134 364.293 167.536 365.172 167.536 366.911H169.069C169.069 366.331 169.294 366.032 169.742 366.032C170.359 366.032 170.827 367.004 171.949 367.004C173.127 367.004 173.726 366.144 173.726 364.405ZM170.715 368.538C166.769 368.538 163.74 371.38 163.74 375.158C163.74 378.917 166.769 381.815 170.715 381.815C174.661 381.815 177.69 378.917 177.69 375.158C177.69 371.399 174.661 368.538 170.715 368.538ZM170.752 370.782C173.146 370.782 175.128 372.689 175.128 375.158C175.128 377.626 173.146 379.571 170.752 379.571C168.34 379.571 166.302 377.626 166.302 375.158C166.302 372.689 168.321 370.782 170.752 370.782ZM179.889 368.613V381.703H189.707V379.515H182.395V376.224H188.753V374.036H182.395V370.801H189.482V368.613H179.889ZM200.481 372.054L201.49 369.884C200.237 369.061 198.498 368.5 196.759 368.5C193.823 368.5 191.86 369.959 191.86 372.241C191.86 376.897 198.891 375.345 198.891 378.075C198.891 378.991 198.05 379.515 196.647 379.515C195.244 379.515 193.468 378.786 192.122 377.589L191.074 379.702C192.477 380.955 194.515 381.796 196.61 381.796C199.489 381.796 201.621 380.375 201.621 377.925C201.64 373.232 194.609 374.672 194.609 372.016C194.609 371.212 195.375 370.782 196.554 370.782C197.563 370.782 199.078 371.212 200.481 372.054Z" fill="white"/>
<path d="M161.493 261.99L171.429 274.308C171.594 274.511 171.716 274.745 171.787 274.997C171.857 275.248 171.876 275.511 171.841 275.77C171.806 276.029 171.718 276.278 171.583 276.502C171.448 276.725 171.269 276.919 171.056 277.071L160.872 284.382C160.445 284.674 159.921 284.786 159.413 284.694C158.904 284.602 158.452 284.314 158.155 283.891L149.332 270.682C149.265 270.582 149.174 270.5 149.068 270.444C148.962 270.387 148.844 270.358 148.723 270.358C148.603 270.358 148.485 270.387 148.378 270.444C148.272 270.5 148.182 270.582 148.115 270.682L139.298 283.884C139.155 284.098 138.971 284.281 138.757 284.423C138.542 284.564 138.301 284.661 138.048 284.707C137.796 284.753 137.536 284.749 137.285 284.693C137.034 284.637 136.797 284.531 136.588 284.382L126.39 277.071C126.178 276.919 125.998 276.725 125.863 276.502C125.728 276.278 125.641 276.029 125.606 275.77C125.571 275.511 125.589 275.248 125.66 274.997C125.731 274.745 125.852 274.511 126.017 274.308L135.966 261.99C136.042 261.895 136.093 261.783 136.115 261.663C136.137 261.544 136.128 261.42 136.091 261.305C136.053 261.189 135.987 261.085 135.899 261.001C135.811 260.917 135.704 260.857 135.587 260.825L120.185 256.623C119.934 256.553 119.7 256.434 119.497 256.271C119.294 256.108 119.126 255.906 119.003 255.676C118.881 255.447 118.807 255.195 118.785 254.935C118.763 254.676 118.794 254.415 118.876 254.168L122.758 242.386C122.837 242.141 122.966 241.914 123.136 241.72C123.306 241.526 123.513 241.368 123.745 241.256C123.978 241.144 124.231 241.081 124.488 241.069C124.746 241.057 125.003 241.098 125.245 241.188L140.247 246.746C140.36 246.788 140.482 246.802 140.602 246.786C140.722 246.769 140.835 246.723 140.933 246.652C141.03 246.58 141.109 246.485 141.16 246.376C141.212 246.267 141.235 246.146 141.229 246.026L140.515 230.264C140.504 230.005 140.545 229.746 140.636 229.503C140.727 229.26 140.867 229.038 141.046 228.85C141.225 228.663 141.44 228.513 141.679 228.411C141.917 228.308 142.174 228.255 142.433 228.255H155.04C155.299 228.255 155.555 228.308 155.793 228.411C156.031 228.513 156.246 228.663 156.425 228.851C156.604 229.039 156.742 229.261 156.833 229.504C156.923 229.746 156.963 230.005 156.951 230.264L156.231 245.999C156.225 246.12 156.25 246.241 156.303 246.35C156.355 246.459 156.434 246.554 156.532 246.625C156.63 246.696 156.744 246.742 156.864 246.759C156.984 246.775 157.106 246.762 157.219 246.719L172.215 241.162C172.456 241.072 172.714 241.031 172.971 241.043C173.229 241.055 173.482 241.118 173.714 241.23C173.947 241.342 174.154 241.5 174.324 241.694C174.493 241.888 174.622 242.115 174.702 242.36L178.59 254.142C178.671 254.389 178.702 254.65 178.679 254.909C178.657 255.168 178.582 255.42 178.46 255.649C178.338 255.878 178.17 256.081 177.968 256.243C177.765 256.406 177.531 256.526 177.281 256.596L161.88 260.799C161.756 260.826 161.642 260.885 161.548 260.97C161.455 261.055 161.385 261.163 161.346 261.284C161.307 261.404 161.3 261.533 161.326 261.656C161.352 261.78 161.41 261.895 161.493 261.99Z" fill="#282828"/>
<path d="M148.744 35.1663L148.744 36.1481" stroke="#282828" stroke-width="1.96363" stroke-miterlimit="10"/>
<path d="M148.744 60.3413L148.744 201.173" stroke="#282828" stroke-width="1.96363" stroke-miterlimit="10" stroke-dasharray="1.95 4.56"/>
<path d="M148.743 203.45L148.743 204.432" stroke="#282828" stroke-width="1.96363" stroke-miterlimit="10"/>
<path d="M266.824 86.7976L266.824 189.6L201.382 251.258" stroke="#282828" stroke-width="1.96363" stroke-miterlimit="10" stroke-dasharray="1.96 4.58"/>
<path d="M209.237 137.983L209.237 190.694L183.16 216.771" stroke="#282828" stroke-width="1.96363" stroke-miterlimit="10" stroke-dasharray="1.96 4.58"/>
<path d="M30.6639 86.7974L30.6639 189.6L96.1052 251.258" stroke="#282828" stroke-width="1.96363" stroke-miterlimit="10" stroke-dasharray="1.96 4.58"/>
<path d="M88.2511 137.983L88.2511 190.693L114.328 216.77" stroke="#282828" stroke-width="1.96363" stroke-miterlimit="10" stroke-dasharray="1.96 4.58"/>
<path d="M96.681 256.495C96.681 285.248 119.99 308.557 148.743 308.557C177.497 308.557 200.806 285.248 200.806 256.495C200.806 227.741 177.497 204.432 148.743 204.432C119.99 204.432 96.681 227.741 96.681 256.495Z" stroke="white" stroke-width="3.92726" stroke-miterlimit="10"/>
<path d="M149.091 85.3554C148.83 85.7174 148.291 85.7174 148.03 85.3554L143.641 79.2739C143.328 78.841 143.638 78.2363 144.172 78.2363L152.949 78.2363C153.483 78.2363 153.793 78.841 153.48 79.2739L149.091 85.3554Z" fill="#282828"/>
<path d="M149.091 137.719C148.83 138.081 148.291 138.081 148.03 137.719L143.641 131.637C143.328 131.204 143.638 130.6 144.172 130.6L152.949 130.6C153.483 130.6 153.793 131.204 153.48 131.637L149.091 137.719Z" fill="#282828"/>
<path d="M149.091 190.082C148.83 190.444 148.291 190.444 148.029 190.082L143.64 184.001C143.328 183.568 143.637 182.963 144.171 182.963L152.949 182.963C153.483 182.963 153.792 183.568 153.48 184.001L149.091 190.082Z" fill="#282828"/>
<path d="M209.636 161.282C209.375 161.644 208.836 161.644 208.575 161.282L204.186 155.201C203.874 154.768 204.183 154.163 204.717 154.163L213.495 154.163C214.028 154.163 214.338 154.768 214.025 155.201L209.636 161.282Z" fill="#282828"/>
<path d="M267.237 117.428C266.976 117.79 266.437 117.79 266.176 117.428L261.787 111.347C261.474 110.914 261.783 110.309 262.317 110.309L271.095 110.309C271.629 110.309 271.938 110.914 271.626 111.347L267.237 117.428Z" fill="#282828"/>
<path d="M267.237 180.591C266.976 180.953 266.437 180.953 266.175 180.591L261.786 174.51C261.474 174.077 261.783 173.472 262.317 173.472L271.095 173.472C271.629 173.472 271.938 174.077 271.626 174.51L267.237 180.591Z" fill="#282828"/>
<path d="M225.785 228.888C225.345 228.959 224.963 228.578 225.035 228.137L226.232 220.734C226.317 220.207 226.963 219.998 227.341 220.375L233.547 226.582C233.925 226.96 233.716 227.606 233.189 227.691L225.785 228.888Z" fill="#282828"/>
<path d="M192.404 207.943C191.964 208.014 191.582 207.633 191.654 207.192L192.85 199.788C192.936 199.261 193.582 199.053 193.959 199.43L200.166 205.637C200.544 206.014 200.335 206.661 199.808 206.746L192.404 207.943Z" fill="#282828"/>
<path d="M149.282 310.537L149.282 349.81" stroke="#282828" stroke-width="1.96363" stroke-miterlimit="10" stroke-dasharray="1.96 4.58"/>
<path d="M149.811 334.675C149.55 335.037 149.011 335.037 148.75 334.675L144.361 328.593C144.049 328.16 144.358 327.556 144.892 327.556L153.67 327.556C154.204 327.556 154.513 328.16 154.2 328.593L149.811 334.675Z" fill="#282828"/>
<path d="M149.812 321.583C149.551 321.945 149.012 321.945 148.75 321.583L144.362 315.502C144.049 315.069 144.358 314.464 144.892 314.464L153.67 314.464C154.204 314.464 154.513 315.069 154.201 315.502L149.812 321.583Z" fill="#282828"/>
<path d="M149.811 347.765C149.55 348.127 149.011 348.127 148.75 347.765L144.361 341.684C144.049 341.251 144.358 340.646 144.892 340.646L153.67 340.646C154.204 340.646 154.513 341.251 154.2 341.684L149.811 347.765Z" fill="#282828"/>
<path d="M102.878 204.246C102.949 204.687 102.568 205.068 102.127 204.997L94.7237 203.8C94.1967 203.715 93.9879 203.069 94.3654 202.691L100.572 196.484C100.95 196.107 101.596 196.316 101.681 196.843L102.878 204.246Z" fill="#282828"/>
<path d="M45.2782 202.938C45.3495 203.378 44.9683 203.759 44.5276 203.688L37.1239 202.491C36.5969 202.406 36.388 201.76 36.7655 201.382L42.9724 195.175C43.3499 194.798 43.9962 195.007 44.0814 195.534L45.2782 202.938Z" fill="#282828"/>
<path d="M86.5143 240.901C86.5855 241.342 86.2044 241.723 85.7637 241.652L78.36 240.455C77.833 240.37 77.6241 239.724 78.0016 239.346L84.2085 233.139C84.586 232.762 85.2323 232.971 85.3175 233.498L86.5143 240.901Z" fill="#282828"/>
<path d="M30.9463 150.809C30.685 151.171 30.146 151.171 29.8847 150.809L25.4958 144.727C25.1834 144.295 25.4927 143.69 26.0266 143.69L34.8044 143.69C35.3383 143.69 35.6476 144.295 35.3352 144.727L30.9463 150.809Z" fill="#282828"/>
<path d="M30.9463 99.1C30.685 99.462 30.146 99.462 29.8847 99.1L25.4958 93.0185C25.1834 92.5856 25.4927 91.9809 26.0266 91.9809L34.8044 91.9809C35.3383 91.9809 35.6476 92.5856 35.3352 93.0185L30.9463 99.1Z" fill="#282828"/>
<path d="M88.5461 166.518C88.2849 166.88 87.7458 166.88 87.4846 166.518L83.0956 160.437C82.7832 160.004 83.0926 159.399 83.6264 159.399L92.4043 159.399C92.9381 159.399 93.2475 160.004 92.9351 160.437L88.5461 166.518Z" fill="#282828"/>
<path d="M183.932 108.024C183.932 121.678 195 132.746 208.654 132.746C222.308 132.746 233.376 121.678 233.376 108.024C233.376 94.3705 222.308 83.302 208.654 83.302C195 83.302 183.932 94.3705 183.932 108.024Z" fill="white"/>
<path d="M184.515 108.024C184.515 121.678 195.583 132.746 209.237 132.746C222.891 132.746 233.959 121.678 233.959 108.024C233.959 94.3705 222.891 83.302 209.237 83.302C195.583 83.302 184.515 94.3705 184.515 108.024Z" fill="white"/>
<path d="M179.573 108.024C179.573 124.407 192.854 137.688 209.237 137.688C225.62 137.688 238.901 124.407 238.901 108.024C238.901 91.6411 225.62 78.3601 209.237 78.3601C192.854 78.3601 179.573 91.6411 179.573 108.024Z" stroke="white" stroke-width="1.96363" stroke-miterlimit="10"/>
<mask id="mask0_89_1489" style="mask-type:alpha" maskUnits="userSpaceOnUse" x="189" y="89" width="39" height="38">
<rect x="189.797" y="89.363" width="37.309" height="37.309" fill="#D9D9D9"/>
</mask>
<g mask="url(#mask0_89_1489)">
<path d="M198.542 120.454C197.842 120.454 197.246 120.208 196.754 119.715C196.262 119.223 196.015 118.627 196.015 117.928V98.1072C196.015 97.4076 196.262 96.8117 196.754 96.3195C197.246 95.8272 197.842 95.5811 198.542 95.5811H218.362C219.061 95.5811 219.657 95.8272 220.15 96.3195C220.642 96.8117 220.888 97.4076 220.888 98.1072V117.928C220.888 118.627 220.642 119.223 220.15 119.715C219.657 120.208 219.061 120.454 218.362 120.454H198.542ZM198.542 118.899H218.362C218.647 118.899 218.88 118.809 219.061 118.627C219.243 118.446 219.334 118.213 219.334 117.928V100.245H197.57V117.928C197.57 118.213 197.661 118.446 197.842 118.627C198.023 118.809 198.257 118.899 198.542 118.899ZM201.456 107.24C201.249 107.24 201.068 107.162 200.912 107.007C200.757 106.851 200.679 106.67 200.679 106.463C200.679 106.23 200.757 106.042 200.912 105.899C201.068 105.757 201.249 105.686 201.456 105.686H215.447C215.654 105.686 215.836 105.763 215.991 105.919C216.147 106.074 216.224 106.256 216.224 106.463C216.224 106.696 216.147 106.884 215.991 107.027C215.836 107.169 215.654 107.24 215.447 107.24H201.456ZM201.456 113.458C201.249 113.458 201.068 113.381 200.912 113.225C200.757 113.07 200.679 112.888 200.679 112.681C200.679 112.448 200.757 112.26 200.912 112.117C201.068 111.975 201.249 111.904 201.456 111.904H209.229C209.436 111.904 209.618 111.981 209.773 112.137C209.929 112.292 210.006 112.474 210.006 112.681C210.006 112.914 209.929 113.102 209.773 113.245C209.618 113.387 209.436 113.458 209.229 113.458H201.456Z" fill="#12E066"/>
</g>
<path d="M124.022 30.6633C124.022 44.3169 135.091 55.3854 148.744 55.3854C162.398 55.3854 173.466 44.317 173.466 30.6633C173.466 17.0096 162.398 5.94116 148.744 5.94116C135.091 5.94116 124.022 17.0096 124.022 30.6633Z" fill="white"/>
<path d="M119.08 30.6639C119.08 47.0469 132.361 60.3279 148.744 60.3279C165.127 60.3279 178.408 47.0469 178.408 30.6639C178.408 14.281 165.127 0.999999 148.744 0.999999C132.361 0.999998 119.08 14.281 119.08 30.6639Z" stroke="white" stroke-width="1.96363" stroke-miterlimit="10"/>
<mask id="mask1_89_1489" style="mask-type:alpha" maskUnits="userSpaceOnUse" x="130" y="12" width="38" height="38">
<rect x="130.233" y="12.1272" width="37.309" height="37.309" fill="#D9D9D9"/>
</mask>
<g mask="url(#mask1_89_1489)">
<path d="M142.514 24.0199C141.814 24.0199 141.218 23.7737 140.726 23.2815C140.234 22.7892 139.988 22.2062 139.988 21.5326V20.1335C139.988 19.434 140.234 18.8443 140.726 18.3644C141.218 17.8856 141.801 17.6462 142.475 17.6462H155.261C155.961 17.6462 156.556 17.8856 157.049 18.3644C157.541 18.8443 157.787 19.434 157.787 20.1335V21.5326C157.787 22.2062 157.541 22.7892 157.049 23.2815C156.556 23.7737 155.973 24.0199 155.3 24.0199H142.514ZM142.669 22.4653H155.106C155.442 22.4653 155.714 22.3617 155.922 22.1544C156.129 21.9471 156.233 21.6751 156.233 21.3383V20.3278C156.233 19.9651 156.129 19.6863 155.922 19.4915C155.714 19.2977 155.442 19.2008 155.106 19.2008H142.669C142.332 19.2008 142.06 19.2977 141.853 19.4915C141.646 19.6863 141.542 19.9651 141.542 20.3278V21.3383C141.542 21.6751 141.646 21.9471 141.853 22.1544C142.06 22.3617 142.332 22.4653 142.669 22.4653ZM138.239 42.6744C137.539 42.6744 136.95 42.4282 136.471 41.936C135.991 41.4437 135.751 40.8607 135.751 40.1871V38.6326H162.023V40.1871C162.023 40.8607 161.784 41.4437 161.305 41.936C160.825 42.4282 160.236 42.6744 159.536 42.6744H138.239ZM135.751 37.4278L140.337 27.0901C140.545 26.6237 140.849 26.2543 141.251 25.9817C141.653 25.7102 142.112 25.5744 142.63 25.5744H155.144C155.663 25.5744 156.123 25.7102 156.525 25.9817C156.926 26.2543 157.23 26.6237 157.437 27.0901L162.023 37.4278H135.751ZM143.796 34.8628H145.351C145.506 34.8628 145.649 34.798 145.778 34.6685C145.908 34.5389 145.973 34.3964 145.973 34.241C145.973 34.0855 145.908 33.9492 145.778 33.8321C145.649 33.7161 145.506 33.658 145.351 33.658H143.796C143.641 33.658 143.505 33.7161 143.389 33.8321C143.272 33.9492 143.213 34.0855 143.213 34.241C143.213 34.3964 143.272 34.5389 143.389 34.6685C143.505 34.798 143.641 34.8628 143.796 34.8628ZM143.796 32.1035H145.351C145.506 32.1035 145.649 32.0454 145.778 31.9294C145.908 31.8123 145.973 31.663 145.973 31.4817C145.973 31.3262 145.908 31.1904 145.778 31.0744C145.649 30.9573 145.506 30.8987 145.351 30.8987H143.796C143.641 30.8987 143.505 30.9573 143.389 31.0744C143.272 31.1904 143.213 31.3262 143.213 31.4817C143.213 31.663 143.272 31.8123 143.389 31.9294C143.505 32.0454 143.641 32.1035 143.796 32.1035ZM143.796 29.3442H145.351C145.506 29.3442 145.649 29.2856 145.778 29.1685C145.908 29.0524 145.973 28.9167 145.973 28.7612C145.973 28.6058 145.908 28.4633 145.778 28.3337C145.649 28.2042 145.506 28.1394 145.351 28.1394H143.796C143.641 28.1394 143.505 28.2042 143.389 28.3337C143.272 28.4633 143.213 28.6058 143.213 28.7612C143.213 28.9167 143.272 29.0524 143.389 29.1685C143.505 29.2856 143.641 29.3442 143.796 29.3442ZM148.11 34.8628H149.665C149.82 34.8628 149.956 34.798 150.072 34.6685C150.189 34.5389 150.248 34.3964 150.248 34.241C150.248 34.0855 150.189 33.9492 150.072 33.8321C149.956 33.7161 149.82 33.658 149.665 33.658H148.11C147.955 33.658 147.819 33.7161 147.703 33.8321C147.586 33.9492 147.527 34.0855 147.527 34.241C147.527 34.3964 147.586 34.5389 147.703 34.6685C147.819 34.798 147.955 34.8628 148.11 34.8628ZM148.11 32.1035H149.665C149.82 32.1035 149.956 32.0454 150.072 31.9294C150.189 31.8123 150.248 31.663 150.248 31.4817C150.248 31.3262 150.189 31.1904 150.072 31.0744C149.956 30.9573 149.82 30.8987 149.665 30.8987H148.11C147.955 30.8987 147.819 30.9573 147.703 31.0744C147.586 31.1904 147.527 31.3262 147.527 31.4817C147.527 31.663 147.586 31.8123 147.703 31.9294C147.819 32.0454 147.955 32.1035 148.11 32.1035ZM148.11 29.3442H149.665C149.82 29.3442 149.956 29.2856 150.072 29.1685C150.189 29.0524 150.248 28.9167 150.248 28.7612C150.248 28.6058 150.189 28.4633 150.072 28.3337C149.956 28.2042 149.82 28.1394 149.665 28.1394H148.11C147.955 28.1394 147.819 28.2042 147.703 28.3337C147.586 28.4633 147.527 28.6058 147.527 28.7612C147.527 28.9167 147.586 29.0524 147.703 29.1685C147.819 29.2856 147.955 29.3442 148.11 29.3442ZM152.424 34.8628H153.978C154.134 34.8628 154.27 34.798 154.387 34.6685C154.503 34.5389 154.561 34.3964 154.561 34.241C154.561 34.0855 154.503 33.9492 154.387 33.8321C154.27 33.7161 154.134 33.658 153.978 33.658H152.424C152.268 33.658 152.126 33.7161 151.996 33.8321C151.867 33.9492 151.802 34.0855 151.802 34.241C151.802 34.3964 151.867 34.5389 151.996 34.6685C152.126 34.798 152.268 34.8628 152.424 34.8628ZM152.424 32.1035H153.978C154.134 32.1035 154.27 32.0454 154.387 31.9294C154.503 31.8123 154.561 31.663 154.561 31.4817C154.561 31.3262 154.503 31.1904 154.387 31.0744C154.27 30.9573 154.134 30.8987 153.978 30.8987H152.424C152.268 30.8987 152.126 30.9573 151.996 31.0744C151.867 31.1904 151.802 31.3262 151.802 31.4817C151.802 31.663 151.867 31.8123 151.996 31.9294C152.126 32.0454 152.268 32.1035 152.424 32.1035ZM152.424 29.3442H153.978C154.134 29.3442 154.27 29.2856 154.387 29.1685C154.503 29.0524 154.561 28.9167 154.561 28.7612C154.561 28.6058 154.503 28.4633 154.387 28.3337C154.27 28.2042 154.134 28.1394 153.978 28.1394H152.424C152.268 28.1394 152.126 28.2042 151.996 28.3337C151.867 28.4633 151.802 28.6058 151.802 28.7612C151.802 28.9167 151.867 29.0524 151.996 29.1685C152.126 29.2856 152.268 29.3442 152.424 29.3442Z" fill="#12E066"/>
</g>
<path d="M63.5286 108.024C63.5286 121.677 74.5971 132.746 88.2508 132.746C101.904 132.746 112.973 121.677 112.973 108.024C112.973 94.37 101.904 83.3015 88.2508 83.3015C74.5971 83.3015 63.5286 94.37 63.5286 108.024Z" fill="white"/>
<path d="M58.5877 108.024C58.5877 124.406 71.8686 137.687 88.2516 137.687C104.635 137.687 117.916 124.406 117.916 108.024C117.916 91.6406 104.635 78.3596 88.2516 78.3596C71.8686 78.3596 58.5877 91.6406 58.5877 108.024Z" stroke="white" stroke-width="1.96363" stroke-miterlimit="10"/>
<mask id="mask2_89_1489" style="mask-type:alpha" maskUnits="userSpaceOnUse" x="70" y="89" width="38" height="38">
<rect x="70.0151" y="89.3628" width="37.309" height="37.309" fill="#D9D9D9"/>
</mask>
<g mask="url(#mask2_89_1489)">
<path d="M80.12 118.899C78.1768 118.899 76.5248 118.225 75.1641 116.878C73.8044 115.531 73.1245 113.885 73.1245 111.942C73.1245 110.154 73.7334 108.567 74.9511 107.181C76.1688 105.795 77.6845 105.05 79.4981 104.947C79.7572 103.029 80.7226 101.261 82.3942 99.6411C84.0649 98.0223 85.8977 97.2129 87.8927 97.2129C88.3072 97.2129 88.6699 97.3683 88.9808 97.6793C89.2918 97.9902 89.4472 98.3529 89.4472 98.7674V110.116L92.0899 107.473C92.2454 107.317 92.4267 107.233 92.634 107.221C92.8413 107.208 93.0356 107.292 93.217 107.473C93.3724 107.628 93.4502 107.81 93.4502 108.017C93.4502 108.224 93.3724 108.406 93.217 108.561L89.5638 112.214C89.4083 112.344 89.2596 112.441 89.1176 112.505C88.9746 112.57 88.8254 112.603 88.6699 112.603C88.5145 112.603 88.3658 112.57 88.2238 112.505C88.0808 112.441 87.9315 112.344 87.7761 112.214L84.1229 108.561C83.9934 108.432 83.9224 108.256 83.9099 108.036C83.8965 107.816 83.9674 107.628 84.1229 107.473C84.3043 107.292 84.4924 107.201 84.6872 107.201C84.881 107.201 85.0686 107.292 85.2499 107.473L87.8927 110.116V98.7674C85.9495 98.8711 84.2975 99.7261 82.9368 101.332C81.5771 102.939 80.8972 104.649 80.8972 106.462H80.12C78.6172 106.462 77.3347 106.994 76.2725 108.056C75.2102 109.118 74.6791 110.401 74.6791 111.903C74.6791 113.406 75.2102 114.689 76.2725 115.751C77.3347 116.813 78.6172 117.344 80.12 117.344H98.7745C99.8626 117.344 100.782 116.969 101.534 116.217C102.285 115.466 102.661 114.546 102.661 113.458C102.661 112.37 102.285 111.45 101.534 110.699C100.782 109.947 99.8626 109.572 98.7745 109.572H96.4426V106.462C96.4426 105.167 96.1576 103.982 95.5877 102.907C95.0177 101.831 94.2663 100.944 93.3336 100.244V98.3788C94.7845 99.2079 95.9245 100.341 96.7536 101.779C97.5826 103.217 97.9972 104.778 97.9972 106.462V108.017H98.9688C100.446 108.069 101.689 108.619 102.7 109.668C103.71 110.718 104.215 111.981 104.215 113.458C104.215 114.986 103.691 116.276 102.642 117.326C101.592 118.374 100.303 118.899 98.7745 118.899H80.12Z" fill="#12E066"/>
</g>
<path d="M242.102 56.8393C242.102 70.493 253.17 81.5614 266.824 81.5614C280.477 81.5615 291.546 70.493 291.546 56.8393C291.546 43.1857 280.477 32.1172 266.824 32.1172C253.17 32.1172 242.102 43.1857 242.102 56.8393Z" fill="white"/>
<path d="M237.16 56.8392C237.16 73.2222 250.441 86.5032 266.824 86.5032C283.207 86.5032 296.488 73.2222 296.488 56.8392C296.488 40.4563 283.207 27.1753 266.824 27.1753C250.441 27.1753 237.16 40.4563 237.16 56.8392Z" stroke="white" stroke-width="1.96363" stroke-miterlimit="10"/>
<mask id="mask3_89_1489" style="mask-type:alpha" maskUnits="userSpaceOnUse" x="248" y="38" width="39" height="38">
<rect x="248.706" y="38.3083" width="37.309" height="37.309" fill="#D9D9D9"/>
</mask>
<g mask="url(#mask3_89_1489)">
<path d="M269.149 70.9537H265.534C265.249 70.9537 264.99 70.85 264.757 70.6428C264.524 70.4355 264.381 70.1764 264.329 69.8655L263.902 66.4455C263.41 66.316 262.872 66.0895 262.29 65.7662C261.706 65.4418 261.22 65.0982 260.832 64.7355L257.723 66.0569C257.412 66.1864 257.108 66.1994 256.81 66.0957C256.512 65.9921 256.285 65.7978 256.129 65.5128L254.303 62.4037C254.147 62.1187 254.102 61.8208 254.167 61.5098C254.232 61.1989 254.393 60.9528 254.652 60.7714L257.373 58.7117C257.321 58.4526 257.276 58.1738 257.238 57.8753C257.198 57.5779 257.179 57.2867 257.179 57.0017C257.179 56.7426 257.198 56.4638 257.238 56.1653C257.276 55.8679 257.321 55.5508 257.373 55.2139L254.652 53.1542C254.393 52.9728 254.232 52.7267 254.167 52.4158C254.102 52.1049 254.147 51.8069 254.303 51.5219L256.129 48.4517C256.285 48.1667 256.505 47.9724 256.79 47.8687C257.075 47.7651 257.373 47.7781 257.684 47.9076L260.793 49.229C261.259 48.8403 261.758 48.4905 262.29 48.1796C262.82 47.8687 263.345 47.6356 263.863 47.4801L264.329 44.0601C264.381 43.7492 264.524 43.4901 264.757 43.2828C264.99 43.0756 265.249 42.9719 265.534 42.9719H269.149C269.459 42.9719 269.731 43.0756 269.965 43.2828C270.198 43.4901 270.34 43.7492 270.392 44.0601L270.82 47.4801C271.416 47.7133 271.94 47.9594 272.394 48.2185C272.847 48.4776 273.32 48.8144 273.812 49.229L277.038 47.9076C277.349 47.7781 277.647 47.7651 277.932 47.8687C278.217 47.9724 278.437 48.1537 278.592 48.4128L280.419 51.5219C280.574 51.8069 280.62 52.1049 280.556 52.4158C280.49 52.7267 280.328 52.9728 280.069 53.1542L277.232 55.2917C277.336 55.6026 277.388 55.8943 277.388 56.1669V56.9628C277.388 57.196 277.381 57.4489 277.369 57.7214C277.355 57.9929 277.31 58.323 277.232 58.7117L279.991 60.7714C280.276 60.9528 280.445 61.1989 280.497 61.5098C280.548 61.8208 280.497 62.1187 280.341 62.4037L278.515 65.5128C278.359 65.7978 278.133 65.9854 277.835 66.0755C277.537 66.1667 277.232 66.1476 276.921 66.018L273.812 64.6967C273.32 65.1112 272.834 65.461 272.356 65.746C271.876 66.031 271.364 66.2642 270.82 66.4455L270.392 69.8655C270.34 70.1764 270.198 70.4355 269.965 70.6428C269.731 70.85 269.459 70.9537 269.149 70.9537ZM267.322 60.8492C268.41 60.8492 269.33 60.4735 270.081 59.7221C270.833 58.9708 271.208 58.051 271.208 56.9628C271.208 55.8746 270.833 54.9549 270.081 54.2035C269.33 53.4521 268.41 53.0764 267.322 53.0764C266.234 53.0764 265.314 53.4521 264.563 54.2035C263.811 54.9549 263.436 55.8746 263.436 56.9628C263.436 58.051 263.811 58.9708 264.563 59.7221C265.314 60.4735 266.234 60.8492 267.322 60.8492ZM267.322 59.2946C266.674 59.2946 266.124 59.0677 265.671 58.6137C265.217 58.1608 264.99 57.6105 264.99 56.9628C264.99 56.3151 265.217 55.7648 265.671 55.3119C266.124 54.858 266.674 54.631 267.322 54.631C267.97 54.631 268.52 54.858 268.974 55.3119C269.427 55.7648 269.654 56.3151 269.654 56.9628C269.654 57.6105 269.427 58.1608 268.974 58.6137C268.52 59.0677 267.97 59.2946 267.322 59.2946ZM265.806 69.3991H268.838L269.421 65.2019C270.198 64.9946 270.904 64.7096 271.539 64.3469C272.174 63.9842 272.815 63.4789 273.462 62.8312L277.31 64.5023L278.864 61.8596L275.483 59.2946C275.613 58.8542 275.697 58.4458 275.737 58.0696C275.775 57.6945 275.794 57.3255 275.794 56.9628C275.794 56.5742 275.775 56.2047 275.737 55.8544C275.697 55.5052 275.613 55.1103 275.483 54.6699L278.942 52.066L277.388 49.4233L273.424 51.0944C272.957 50.5762 272.342 50.0902 271.578 49.6362C270.813 49.1834 270.081 48.8792 269.382 48.7237L268.915 44.5265H265.806L265.34 48.7237C264.563 48.8792 263.843 49.1445 263.182 49.5197C262.522 49.8959 261.868 50.4078 261.22 51.0555L257.334 49.4233L255.779 52.066L259.161 54.5921C259.031 54.9289 258.94 55.3046 258.889 55.7192C258.837 56.1337 258.811 56.5612 258.811 57.0017C258.811 57.3903 258.837 57.7789 258.889 58.1676C258.94 58.5562 259.018 58.9319 259.122 59.2946L255.779 61.8596L257.334 64.5023L261.181 62.8701C261.803 63.4919 262.438 63.9842 263.086 64.3469C263.734 64.7096 264.472 64.9946 265.301 65.2019L265.806 69.3991Z" fill="#12E066"/>
</g>
<path d="M5.94196 56.8388C5.94196 70.4925 17.0104 81.561 30.6641 81.561C44.3178 81.561 55.3862 70.4925 55.3862 56.8388C55.3862 43.1852 44.3178 32.1167 30.6641 32.1167C17.0104 32.1167 5.94196 43.1852 5.94196 56.8388Z" fill="white"/>
<path d="M1.00024 56.8387C1.00023 73.2217 14.2812 86.5027 30.6642 86.5027C47.0471 86.5027 60.3281 73.2217 60.3281 56.8387C60.3281 40.4558 47.0471 27.1748 30.6642 27.1748C14.2812 27.1748 1.00024 40.4558 1.00024 56.8387Z" stroke="white" stroke-width="1.96363" stroke-miterlimit="10"/>
<mask id="mask4_89_1489" style="mask-type:alpha" maskUnits="userSpaceOnUse" x="11" y="37" width="39" height="38">
<rect x="11.76" y="37.6541" width="37.309" height="37.309" fill="#D9D9D9"/>
</mask>
<g mask="url(#mask4_89_1489)">
<path d="M22.5248 69.5218C20.6333 69.5218 19.0138 68.8481 17.6663 67.5006C16.3194 66.1531 15.646 64.5339 15.646 62.643C15.646 61.3732 15.9569 60.22 16.5787 59.1835C17.2005 58.1475 18.0167 57.3314 19.0271 56.7351C19.2858 56.5796 19.5252 56.5473 19.7453 56.6381C19.9661 56.7289 20.0764 56.9297 20.0764 57.2406C20.0764 57.3961 20.0376 57.5257 19.9599 57.6296C19.8821 57.7328 19.7783 57.8232 19.6483 57.901C18.8456 58.3673 18.1979 59.0215 17.7055 59.8634C17.213 60.706 16.9667 61.6325 16.9667 62.643C16.9667 64.1714 17.5108 65.4797 18.599 66.5679C19.6872 67.656 20.9958 68.2001 22.5248 68.2001C24.0017 68.2001 25.2776 67.6884 26.3527 66.6649C27.4279 65.6414 28.0043 64.4042 28.082 62.9536C28.1081 62.6688 28.2117 62.4356 28.3926 62.254C28.5742 62.0724 28.7946 61.9817 29.0539 61.9817H36.6323C36.7878 61.6452 37.0144 61.3732 37.3123 61.1655C37.6101 60.9585 37.9403 60.8549 38.3028 60.8549C38.7953 60.8549 39.2163 61.03 39.5657 61.38C39.9158 61.7295 40.0909 62.1505 40.0909 62.643C40.0909 63.1348 39.9158 63.5558 39.5657 63.9059C39.2163 64.2553 38.7953 64.4301 38.3028 64.4301C37.9403 64.4301 37.6101 64.3331 37.3123 64.139C37.0144 63.9444 36.7878 63.6658 36.6323 63.3033H29.4037C29.1444 65.2204 28.3475 66.7361 27.0131 67.8504C25.6787 68.9647 24.1826 69.5218 22.5248 69.5218ZM22.5248 64.4301C22.0324 64.4301 21.6114 64.2553 21.2619 63.9059C20.9119 63.5558 20.7368 63.1348 20.7368 62.643C20.7368 62.1505 20.9311 61.7164 21.3198 61.3409C21.7084 60.9653 22.2136 60.8164 22.8354 60.8941L26.9935 53.8595C26.113 53.186 25.4461 52.3764 24.9928 51.4307C24.5389 50.4849 24.3119 49.481 24.3119 48.4189C24.3119 46.5273 24.9857 44.9078 26.3332 43.5603C27.6806 42.2135 29.2999 41.54 31.1908 41.54C32.953 41.54 34.4752 42.123 35.7574 43.2889C37.0402 44.4548 37.7852 45.8928 37.9922 47.6028C38.0438 47.8098 37.9919 47.978 37.8365 48.1074C37.681 48.2373 37.5128 48.3023 37.3319 48.3023C37.1764 48.3023 37.0402 48.2438 36.9233 48.1269C36.807 48.0107 36.7228 47.8617 36.6706 47.6802C36.5151 46.3327 35.9194 45.1926 34.8835 44.2599C33.8469 43.3271 32.616 42.8608 31.1908 42.8608C29.6624 42.8608 28.3541 43.4049 27.2659 44.493C26.1777 45.5812 25.6336 46.8898 25.6336 48.4189C25.6336 49.3255 25.8345 50.1674 26.2362 50.9447C26.6379 51.722 27.2143 52.3957 27.9654 52.9659C28.1986 53.1214 28.3475 53.3284 28.4122 53.5871C28.4769 53.8464 28.4445 54.0796 28.3152 54.2867L23.9622 61.5936C24.066 61.7491 24.1503 61.9173 24.2149 62.0982C24.2796 62.2798 24.3119 62.4614 24.3119 62.643C24.3119 63.1348 24.1372 63.5558 23.7878 63.9059C23.4377 64.2553 23.0167 64.4301 22.5248 64.4301ZM38.3028 69.5218C37.5778 69.5218 36.8782 69.4114 36.2042 69.1907C35.5308 68.9706 34.922 68.6534 34.3779 68.2393C34.0931 68.0316 33.9831 67.7854 34.0477 67.5006C34.1124 67.2158 34.3002 67.0734 34.6111 67.0734C34.7404 67.0734 34.857 67.0992 34.9609 67.1508C35.0647 67.2024 35.1813 67.2543 35.3106 67.3066C35.7509 67.5914 36.2238 67.8115 36.7293 67.967C37.2342 68.1224 37.7587 68.2001 38.3028 68.2001C39.8319 68.2001 41.1405 67.656 42.2287 66.5679C43.3168 65.4797 43.8609 64.1714 43.8609 62.643C43.8609 61.1139 43.3168 59.8053 42.2287 58.7171C41.1405 57.6289 39.8319 57.0848 38.3028 57.0848C38.0441 57.0848 37.7917 57.1044 37.5455 57.1436C37.2992 57.1822 37.0595 57.2275 36.8263 57.2798C36.567 57.383 36.3015 57.3765 36.0298 57.2602C35.7574 57.1433 35.5566 56.9813 35.4272 56.7742L31.5023 50.1677C30.9582 50.271 30.4723 50.1479 30.0445 49.7984C29.6173 49.4483 29.4037 48.9885 29.4037 48.4189C29.4037 47.9264 29.5784 47.5054 29.9279 47.156C30.278 46.8059 30.6989 46.6309 31.1908 46.6309C31.6833 46.6309 32.1046 46.8059 32.4546 47.156C32.8041 47.5054 32.9788 47.9264 32.9788 48.4189C32.9788 48.5998 32.9465 48.7746 32.8818 48.9431C32.8172 49.1116 32.7329 49.2736 32.6291 49.429L36.5157 55.9973C36.8005 55.9451 37.0918 55.8931 37.3897 55.8415C37.6875 55.7899 37.9919 55.7641 38.3028 55.7641C40.1944 55.7641 41.8139 56.4375 43.1614 57.7844C44.5082 59.1319 45.1817 60.7514 45.1817 62.643C45.1817 64.5339 44.5082 66.1531 43.1614 67.5006C41.8139 68.8481 40.1944 69.5218 38.3028 69.5218Z" fill="#12E066"/>
</g>
</svg>
