<svg width="150" height="42" viewBox="0 0 150 42" fill="none" xmlns="http://www.w3.org/2000/svg">
<g clip-path="url(#clip0_15_1120)">
<path d="M2.80015 3.2532V15.3049H19.5582C19.6025 15.3047 19.6465 15.3132 19.6875 15.33C19.7285 15.3469 19.7658 15.3717 19.7971 15.403C19.8285 15.4343 19.8533 15.4716 19.8702 15.5126C19.887 15.5535 19.8956 15.5975 19.8953 15.6418V17.5225C19.8953 17.5668 19.8866 17.6106 19.8696 17.6514C19.8527 17.6923 19.8279 17.7294 19.7966 17.7607C19.7653 17.792 19.7281 17.8168 19.6872 17.8337C19.6463 17.8506 19.6025 17.8594 19.5582 17.8594H2.80015V32.4383C2.80015 32.5271 2.76484 32.6122 2.70199 32.675C2.63913 32.7379 2.55388 32.7731 2.46499 32.7731H0.337114C0.292104 32.7734 0.247499 32.7646 0.20596 32.7473C0.16442 32.73 0.126798 32.7045 0.0953361 32.6723C0.0638747 32.6402 0.0392191 32.602 0.0228403 32.5601C0.00646158 32.5182 -0.00130481 32.4735 4.51351e-06 32.4285V0.712408H20.7585C20.8027 0.712151 20.8465 0.720624 20.8874 0.737338C20.9283 0.754052 20.9655 0.778679 20.9968 0.809801C21.0281 0.840923 21.053 0.877926 21.0699 0.918683C21.0869 0.95944 21.0956 1.00315 21.0956 1.04729V2.92027C21.0959 2.96457 21.0874 3.00849 21.0705 3.04947C21.0537 3.09045 21.0288 3.12769 20.9975 3.15902C20.9661 3.19035 20.9289 3.21515 20.8878 3.23198C20.8468 3.24882 20.8029 3.25735 20.7585 3.2571L2.80015 3.2532Z" fill="white"/>
<path d="M26.6297 32.3315V10.1127C26.6294 10.0684 26.638 10.0245 26.6548 9.98351C26.6717 9.94253 26.6965 9.90529 26.7278 9.87396C26.7592 9.84263 26.7965 9.81783 26.8375 9.801C26.8785 9.78416 26.9225 9.77563 26.9668 9.77588H29.0947C29.1829 9.77742 29.2669 9.81365 29.3286 9.8767C29.3902 9.93976 29.4245 10.0246 29.424 10.1127V32.3315C29.4243 32.3757 29.4158 32.4194 29.399 32.4603C29.3823 32.5011 29.3577 32.5383 29.3265 32.5696C29.2954 32.6009 29.2583 32.6257 29.2175 32.6427C29.1768 32.6596 29.133 32.6683 29.0888 32.6683H26.9668C26.9225 32.6686 26.8785 32.6601 26.8375 32.6432C26.7965 32.6264 26.7592 32.6016 26.7278 32.5703C26.6965 32.5389 26.6717 32.5017 26.6548 32.4607C26.638 32.4197 26.6294 32.3758 26.6297 32.3315Z" fill="white"/>
<path d="M58.1699 10.2838V41.6651C58.1693 41.7542 58.1337 41.8396 58.0706 41.9027C58.0075 41.9657 57.922 42.0014 57.8328 42.0019H55.7049C55.6155 42.0019 55.5297 41.9664 55.4665 41.9032C55.4033 41.8401 55.3678 41.7544 55.3678 41.6651V27.4795C54.9328 28.1601 54.4266 28.7925 53.8576 29.3661C52.7436 30.493 51.4196 31.3912 49.9604 32.01C48.4355 32.6477 46.8021 32.9861 45.1493 33.0069C43.4854 33.0193 41.8337 32.7236 40.2777 32.1347C38.7663 31.5506 37.3825 30.6791 36.2032 29.5685C35.0742 28.526 34.1733 27.2613 33.5571 25.854C32.9409 24.4468 32.6229 22.9273 32.6229 21.3913C32.6229 19.8552 32.9409 18.3358 33.5571 16.9285C34.1733 15.5212 35.0742 14.2566 36.2032 13.214C37.3816 12.1022 38.7656 11.2306 40.2777 10.6479C41.8335 10.0579 43.4852 9.76089 45.1493 9.77177C46.8028 9.79256 48.4368 10.131 49.9623 10.7686C51.4219 11.3877 52.7459 12.2867 53.8595 13.4146C54.4278 13.9863 54.9328 14.6175 55.3658 15.2973V10.2838C55.3658 10.2397 55.3745 10.196 55.3915 10.1552C55.4085 10.1145 55.4333 10.0775 55.4647 10.0463C55.496 10.0152 55.5332 9.99059 55.5741 9.97388C55.615 9.95716 55.6587 9.94869 55.7029 9.94895H57.8328C57.9218 9.94895 58.0073 9.98417 58.0704 10.0469C58.1336 10.1097 58.1693 10.1948 58.1699 10.2838ZM55.3639 21.3932C55.3565 20.1503 55.0765 18.9242 54.5435 17.8011C53.9881 16.6653 53.2079 15.6539 52.25 14.8281C50.3189 13.1517 47.7097 12.2795 45.1415 12.3204C42.5908 12.3373 40.1378 13.3028 38.2609 15.0286C37.3768 15.8395 36.6677 16.8223 36.1771 17.9167C35.6866 19.0112 35.4249 20.1942 35.4082 21.3932C35.4232 22.593 35.6839 23.7769 36.1742 24.8722C36.6645 25.9674 37.374 26.9508 38.259 27.7618C40.1358 29.4892 42.5897 30.4555 45.1415 30.4719C47.7117 30.5148 50.3209 29.6406 52.2539 27.9623C53.2125 27.1372 53.9929 26.1256 54.5474 24.9893C55.0814 23.8653 55.3602 22.6374 55.3639 21.3932Z" fill="white"/>
<path d="M79.7273 33.2777C69.8771 33.2777 61.8625 25.8578 61.8625 16.7382C61.8625 7.61865 69.8771 0.20459 79.7273 0.20459C89.5775 0.20459 97.5902 7.62254 97.5902 16.7441C97.5902 25.8656 89.5756 33.2777 79.7273 33.2777ZM79.7273 6.1409C73.4801 6.1409 68.3962 10.9032 68.3962 16.7441C68.3962 22.585 73.4762 27.3453 79.7234 27.3453C85.9707 27.3453 91.0526 22.585 91.0526 16.7441C91.0526 10.9032 85.9707 6.1409 79.7273 6.1409Z" fill="white"/>
<path d="M118.994 21.8059V21.0427C118.994 20.8168 118.994 20.6163 118.972 20.408C118.937 19.6295 118.779 18.8615 118.505 18.132C118.265 17.4795 117.907 16.8769 117.448 16.3544C117.054 15.9115 116.576 15.5504 116.042 15.2913C115.462 15.0146 114.835 14.8494 114.194 14.8046C113.818 14.7692 113.439 14.7627 113.062 14.7851H113.035C112.973 14.7851 112.916 14.7987 112.856 14.8046C112.795 14.8104 112.688 14.8182 112.606 14.8299C109.327 15.2193 107.526 17.5946 107.526 20.3281V32.045C107.526 32.1614 107.48 32.273 107.398 32.3554C107.316 32.4379 107.204 32.4845 107.088 32.485H101.743C101.626 32.485 101.514 32.4386 101.431 32.3561C101.349 32.2736 101.302 32.1617 101.302 32.045V10.0365C101.302 9.91976 101.349 9.80784 101.431 9.72532C101.514 9.64281 101.626 9.59645 101.743 9.59645H107.088C107.204 9.59696 107.316 9.64355 107.398 9.72601C107.48 9.80847 107.526 9.9201 107.526 10.0365V12.4935C107.526 12.4935 109.218 9.80672 113.232 9.26936C113.551 9.22652 113.873 9.19732 114.188 9.18564C115.784 9.10652 117.377 9.38181 118.853 9.99168C120.309 10.5965 121.594 11.5476 122.597 12.7622C123.474 13.8461 124.136 15.088 124.545 16.4206C124.917 17.6298 125.128 18.8828 125.173 20.1471L125.2 32.0469C125.2 32.1046 125.189 32.1618 125.167 32.2152C125.145 32.2686 125.113 32.3171 125.072 32.358C125.032 32.3988 124.983 32.4313 124.93 32.4534C124.877 32.4756 124.819 32.487 124.762 32.487H119.42C119.363 32.4872 119.305 32.476 119.252 32.454C119.198 32.4319 119.15 32.3995 119.109 32.3585C119.068 32.3176 119.036 32.269 119.014 32.2155C118.993 32.162 118.982 32.1047 118.982 32.0469V26.3813L118.994 21.8059Z" fill="white"/>
<path d="M143.494 12.4857L147.51 17.466C147.541 17.5068 147.564 17.5535 147.578 17.6032C147.591 17.653 147.594 17.7049 147.587 17.756C147.581 17.8071 147.564 17.8563 147.538 17.9008C147.511 17.9452 147.477 17.9841 147.436 18.0151L143.258 21.0095C143.173 21.067 143.07 21.089 142.969 21.0708C142.868 21.0526 142.779 20.9956 142.72 20.9122L139.166 15.5872L135.608 20.9102C135.549 20.9946 135.459 21.0523 135.358 21.0709C135.257 21.0895 135.153 21.0674 135.068 21.0095L130.89 18.0151C130.849 17.9842 130.814 17.9455 130.788 17.9011C130.761 17.8567 130.744 17.8075 130.737 17.7564C130.73 17.7054 130.733 17.6534 130.746 17.6035C130.76 17.5537 130.783 17.5069 130.814 17.466L134.844 12.4857L128.608 10.7879C128.559 10.7732 128.513 10.749 128.473 10.7165C128.434 10.684 128.401 10.6441 128.376 10.5988C128.352 10.5536 128.337 10.504 128.332 10.4529C128.327 10.4018 128.332 10.3503 128.347 10.3012L129.947 5.4513C129.963 5.40264 129.988 5.35767 130.022 5.31912C130.055 5.28057 130.096 5.24924 130.142 5.22703C130.189 5.20482 130.239 5.19219 130.29 5.18991C130.341 5.18763 130.392 5.19575 130.44 5.21377L136.492 7.45473L136.208 1.09398C136.208 0.992375 136.247 0.894778 136.318 0.822026C136.389 0.749274 136.486 0.70713 136.588 0.70459H141.753C141.855 0.70713 141.952 0.749274 142.023 0.822026C142.094 0.894778 142.133 0.992375 142.133 1.09398L141.845 7.46252L147.899 5.22156C147.995 5.18982 148.098 5.196 148.189 5.23879C148.28 5.28159 148.351 5.35771 148.387 5.4513L149.981 10.2934C149.995 10.3426 150.001 10.3943 149.995 10.4455C149.99 10.4967 149.975 10.5463 149.951 10.5916C149.926 10.6368 149.893 10.6768 149.853 10.7092C149.813 10.7415 149.767 10.7657 149.717 10.7802L143.494 12.4857Z" fill="#12E066"/>
<path d="M28.0307 4.46245C29.264 4.46245 30.2638 3.4635 30.2638 2.23123C30.2638 0.998954 29.264 0 28.0307 0C26.7974 0 25.7976 0.998954 25.7976 2.23123C25.7976 3.4635 26.7974 4.46245 28.0307 4.46245Z" fill="white"/>
</g>
<defs>
<clipPath id="clip0_15_1120">
<rect width="150" height="42" fill="white"/>
</clipPath>
</defs>
</svg>
