<svg width="128" height="36" viewBox="0 0 128 36" fill="none" xmlns="http://www.w3.org/2000/svg">
<g clip-path="url(#clip0_2_11)">
<path d="M2.38946 2.78861V13.1187H16.6896C16.7275 13.1184 16.765 13.1258 16.8 13.1402C16.835 13.1546 16.8668 13.1759 16.8936 13.2027C16.9203 13.2296 16.9415 13.2615 16.9559 13.2966C16.9702 13.3318 16.9775 13.3694 16.9773 13.4074V15.0195C16.9773 15.0574 16.9699 15.0949 16.9554 15.1299C16.941 15.165 16.9198 15.1968 16.8931 15.2236C16.8663 15.2504 16.8346 15.2717 16.7997 15.2862C16.7648 15.3007 16.7274 15.3082 16.6896 15.3082H2.38946V27.8044C2.38946 27.8805 2.35933 27.9535 2.30569 28.0073C2.25206 28.0612 2.17931 28.0914 2.10346 28.0914H0.287666C0.249257 28.0916 0.211194 28.0841 0.175747 28.0693C0.1403 28.0544 0.108196 28.0326 0.0813486 28.005C0.0545015 27.9774 0.0334621 27.9447 0.0194856 27.9088C0.005509 27.8729 -0.00111832 27.8346 -1.03127e-06 27.796V0.610784H17.7139C17.7516 0.610564 17.789 0.617826 17.8239 0.632152C17.8588 0.646479 17.8905 0.667587 17.9173 0.694263C17.944 0.720939 17.9652 0.752656 17.9797 0.787591C17.9942 0.822525 18.0016 0.859987 18.0016 0.897822V2.50324C18.0018 2.54121 17.9945 2.57885 17.9802 2.61398C17.9658 2.64911 17.9446 2.68102 17.9178 2.70788C17.8911 2.73473 17.8593 2.75599 17.8243 2.77042C17.7893 2.78485 17.7518 2.79217 17.7139 2.79194L2.38946 2.78861Z" fill="#282828"/>
<path d="M22.724 27.7126V8.66789C22.7238 8.62992 22.7311 8.59228 22.7455 8.55715C22.7598 8.52202 22.781 8.49011 22.8078 8.46325C22.8345 8.4364 22.8663 8.41514 22.9013 8.40071C22.9363 8.38628 22.9738 8.37896 23.0117 8.37919H24.8275C24.9027 8.3805 24.9745 8.41155 25.0271 8.4656C25.0797 8.51965 25.1089 8.59234 25.1085 8.66789V27.7126C25.1087 27.7504 25.1015 27.7879 25.0872 27.8229C25.0729 27.858 25.0519 27.8898 25.0253 27.9166C24.9987 27.9435 24.9671 27.9648 24.9323 27.9793C24.8975 27.9938 24.8602 28.0013 24.8225 28.0013H23.0117C22.9738 28.0015 22.9363 27.9942 22.9013 27.9798C22.8663 27.9653 22.8345 27.9441 22.8078 27.9172C22.781 27.8904 22.7598 27.8585 22.7455 27.8233C22.7311 27.7882 22.7238 27.7506 22.724 27.7126Z" fill="#282828"/>
<path d="M49.6383 8.81476V35.713C49.6379 35.7894 49.6074 35.8626 49.5536 35.9166C49.4997 35.9707 49.4268 36.0012 49.3506 36.0017H47.5348C47.4586 36.0017 47.3854 35.9713 47.3314 35.9171C47.2775 35.863 47.2472 35.7895 47.2472 35.713V23.5539C46.876 24.1373 46.444 24.6794 45.9585 25.171C45.0079 26.1369 43.8781 26.9068 42.6329 27.4372C41.3317 27.9838 39.9378 28.2738 38.5274 28.2917C37.1076 28.3023 35.6981 28.0488 34.3704 27.544C33.0806 27.0434 31.8998 26.2964 30.8934 25.3445C29.93 24.4509 29.1612 23.3669 28.6354 22.1607C28.1096 20.9544 27.8382 19.652 27.8382 18.3354C27.8382 17.0188 28.1096 15.7164 28.6354 14.5102C29.1612 13.304 29.93 12.22 30.8934 11.3263C31.899 10.3734 33.08 9.62629 34.3704 9.12683C35.698 8.62114 37.1074 8.36653 38.5274 8.37586C39.9384 8.39368 41.3328 8.68376 42.6345 9.2303C43.8801 9.76097 45.0099 10.5315 45.9602 11.4982C46.4451 11.9883 46.876 12.5293 47.2455 13.112V8.81476C47.2455 8.77692 47.253 8.73946 47.2674 8.70453C47.2819 8.66959 47.3031 8.63788 47.3299 8.6112C47.3566 8.58452 47.3883 8.56342 47.4232 8.54909C47.4581 8.53476 47.4955 8.5275 47.5332 8.52772H49.3506C49.4266 8.52772 49.4996 8.55791 49.5535 8.61169C49.6074 8.66547 49.6379 8.73848 49.6383 8.81476ZM47.2439 18.3371C47.2376 17.2718 46.9986 16.2208 46.5438 15.2581C46.0699 14.2846 45.4041 13.4177 44.5867 12.7098C42.9388 11.2729 40.7123 10.5253 38.5207 10.5604C36.3442 10.5749 34.251 11.4024 32.6493 12.8817C31.8949 13.5768 31.2898 14.4192 30.8712 15.3572C30.4526 16.2953 30.2293 17.3093 30.215 18.3371C30.2278 19.3654 30.4503 20.3803 30.8687 21.3191C31.287 22.2578 31.8925 23.1007 32.6477 23.7958C34.2492 25.2765 36.3433 26.1048 38.5207 26.1189C40.714 26.1556 42.9405 25.4063 44.59 23.9677C45.408 23.2605 46.0739 22.3934 46.5471 21.4194C47.0028 20.4561 47.2407 19.4035 47.2439 18.3371Z" fill="#282828"/>
<path d="M68.034 28.5236C59.6285 28.5236 52.7893 22.1637 52.7893 14.3469C52.7893 6.53014 59.6285 0.175232 68.034 0.175232C76.4395 0.175232 83.277 6.53347 83.277 14.3519C83.277 22.1704 76.4378 28.5236 68.034 28.5236ZM68.034 5.26349C62.703 5.26349 58.3647 9.34545 58.3647 14.3519C58.3647 19.3584 62.6997 23.4387 68.0306 23.4387C73.3616 23.4387 77.6982 19.3584 77.6982 14.3519C77.6982 9.34545 73.3616 5.26349 68.034 5.26349Z" fill="#282828"/>
<path d="M101.541 18.6909V18.0367C101.541 17.8431 101.541 17.6712 101.523 17.4927C101.493 16.8254 101.358 16.1671 101.124 15.5418C100.92 14.9826 100.614 14.466 100.223 14.0182C99.8857 13.6386 99.4778 13.329 99.0222 13.107C98.5275 12.8698 97.9927 12.7282 97.4458 12.6898C97.1247 12.6594 96.8017 12.6538 96.4797 12.6731H96.4564C96.4032 12.6731 96.355 12.6848 96.3035 12.6898C96.2519 12.6948 96.1605 12.7015 96.0906 12.7115C93.2921 13.0452 91.7557 15.0812 91.7557 17.4242V27.4673C91.7557 27.567 91.7163 27.6627 91.6462 27.7334C91.5761 27.804 91.4809 27.844 91.3815 27.8444H86.8204C86.7208 27.8444 86.6252 27.8047 86.5547 27.734C86.4842 27.6632 86.4446 27.5673 86.4446 27.4673V8.60281C86.4446 8.50278 86.4842 8.40685 86.5547 8.33612C86.6252 8.26539 86.7208 8.22565 86.8204 8.22565H91.3815C91.4809 8.22609 91.5761 8.26602 91.6462 8.33671C91.7163 8.40739 91.7557 8.50307 91.7557 8.60281V10.7089C91.7557 10.7089 93.199 8.40589 96.6244 7.94529C96.8971 7.90857 97.1714 7.88354 97.4408 7.87353C98.8023 7.80572 100.162 8.04168 101.422 8.56442C102.663 9.08285 103.76 9.8981 104.616 10.9392C105.365 11.8682 105.929 12.9327 106.279 14.0749C106.596 15.1114 106.776 16.1854 106.814 17.269L106.837 27.4689C106.838 27.5184 106.828 27.5674 106.809 27.6131C106.791 27.6589 106.763 27.7005 106.728 27.7355C106.694 27.7706 106.652 27.7984 106.607 27.8173C106.561 27.8363 106.513 27.8461 106.463 27.8461H101.905C101.856 27.8463 101.807 27.8367 101.762 27.8178C101.716 27.7989 101.675 27.7711 101.64 27.736C101.605 27.7009 101.578 27.6592 101.559 27.6134C101.54 27.5675 101.531 27.5184 101.531 27.4689V22.6126L101.541 18.6909Z" fill="#282828"/>
<path d="M122.448 10.7022L125.875 14.9711C125.902 15.006 125.922 15.046 125.933 15.0887C125.944 15.1313 125.947 15.1759 125.941 15.2196C125.935 15.2634 125.921 15.3056 125.899 15.3437C125.876 15.3818 125.847 15.4151 125.812 15.4417L122.247 18.0084C122.175 18.0576 122.086 18.0765 122 18.0609C121.914 18.0453 121.838 17.9965 121.788 17.9249L118.755 13.3607L115.718 17.9232C115.668 17.9955 115.592 18.045 115.506 18.061C115.419 18.0769 115.33 18.058 115.258 18.0084L111.693 15.4417C111.658 15.4152 111.628 15.382 111.605 15.344C111.583 15.3059 111.568 15.2638 111.562 15.22C111.556 15.1762 111.559 15.1317 111.57 15.0889C111.582 15.0462 111.601 15.0061 111.628 14.9711L115.067 10.7022L109.746 9.247C109.704 9.2344 109.665 9.21359 109.631 9.18577C109.597 9.15795 109.568 9.12367 109.548 9.08489C109.527 9.04612 109.514 9.00362 109.51 8.95984C109.506 8.91606 109.51 8.87186 109.523 8.82979L110.888 4.67273C110.901 4.63102 110.923 4.59248 110.952 4.55943C110.98 4.52639 111.016 4.49954 111.055 4.4805C111.094 4.46146 111.137 4.45064 111.181 4.44869C111.224 4.44673 111.268 4.45369 111.309 4.46914L116.473 6.38996L116.231 0.937892C116.231 0.850799 116.264 0.767144 116.325 0.704786C116.386 0.642427 116.468 0.606303 116.555 0.604126H120.963C121.05 0.606303 121.132 0.642427 121.193 0.704786C121.253 0.767144 121.287 0.850799 121.287 0.937892L121.041 6.39664L126.207 4.47581C126.289 4.44861 126.377 4.4539 126.455 4.49059C126.532 4.52727 126.592 4.59251 126.623 4.67273L127.983 8.82311C127.996 8.8653 128 8.9096 127.996 8.95346C127.992 8.99733 127.979 9.03988 127.958 9.07868C127.937 9.11747 127.909 9.15172 127.874 9.17947C127.84 9.20721 127.801 9.22789 127.759 9.24032L122.448 10.7022Z" fill="white"/>
<path d="M23.9196 3.82496C24.972 3.82496 25.8251 2.96871 25.8251 1.91248C25.8251 0.856246 24.972 0 23.9196 0C22.8671 0 22.014 0.856246 22.014 1.91248C22.014 2.96871 22.8671 3.82496 23.9196 3.82496Z" fill="#282828"/>
</g>
<defs>
<clipPath id="clip0_2_11">
<rect width="128" height="36" fill="white"/>
</clipPath>
</defs>
</svg>
