<svg width="249" height="250" viewBox="0 0 249 250" fill="none" xmlns="http://www.w3.org/2000/svg">
<path d="M169.956 150.859L205.534 216.825C205.81 217.363 205.977 217.95 206.025 218.554C206.073 219.157 206.002 219.764 205.816 220.341C205.629 220.917 205.331 221.45 204.939 221.91C204.547 222.37 204.068 222.747 203.53 223.02L149.323 248.93C148.233 249.419 146.997 249.457 145.882 249.037C144.767 248.616 143.861 247.771 143.361 246.683L113.804 177.695L61.8046 231.824C60.9544 232.677 59.8049 233.158 58.6065 233.162C57.4081 233.166 56.2579 232.693 55.4062 231.846L13.7965 188.506C13.3873 188.063 13.0696 187.542 12.8621 186.974C12.6546 186.406 12.5613 185.802 12.5876 185.196C12.614 184.591 12.7595 183.997 13.0156 183.448C13.2718 182.899 13.6336 182.406 14.0799 181.999L70.7657 132.815L2.83193 100.177C2.29851 99.904 1.82415 99.5277 1.43613 99.0694C1.04811 98.6111 0.754028 98.0799 0.570909 97.5062C0.387789 96.9325 0.31921 96.3277 0.369069 95.7266C0.418926 95.1256 0.586235 94.54 0.861427 94.0037L29.4083 41.2601C29.6908 40.7302 30.0771 40.2632 30.5437 39.8876C31.0103 39.5119 31.5476 39.2354 32.1229 39.0748C32.6982 38.9141 33.2996 38.8727 33.8907 38.9529C34.4817 39.0332 35.0501 39.2336 35.5614 39.5418L100.252 78.0797L110.369 3.93518C110.582 2.76018 111.243 1.7145 112.21 1.02133C113.177 0.328171 114.374 0.0424465 115.545 0.225138L174.783 11.0007C175.943 11.2422 176.963 11.9311 177.624 12.9204C178.285 13.9097 178.535 15.1211 178.321 16.296L161.618 89.3356L235.759 76.0518C236.917 75.8834 238.094 76.1713 239.044 76.8554C239.995 77.5396 240.646 78.5673 240.862 79.7246L248.955 139.04C249.023 139.64 248.972 140.249 248.805 140.83C248.639 141.411 248.36 141.953 247.984 142.425C247.608 142.898 247.144 143.291 246.617 143.581C246.09 143.872 245.511 144.055 244.915 144.12L169.956 150.859Z" fill="#27FF7E"/>
</svg>
